<?xml version="1.0" encoding="utf-8" standalone="no"?>
<!DOCTYPE svg PUBLIC "-//W3C//DTD SVG 1.1//EN"
  "http://www.w3.org/Graphics/SVG/1.1/DTD/svg11.dtd">
<svg xmlns:xlink="http://www.w3.org/1999/xlink" width="566.6725pt" height="348.980876pt" viewBox="0 0 566.6725 348.980876" xmlns="http://www.w3.org/2000/svg" version="1.1">
 <metadata>
  <rdf:RDF xmlns:dc="http://purl.org/dc/elements/1.1/" xmlns:cc="http://creativecommons.org/ns#" xmlns:rdf="http://www.w3.org/1999/02/22-rdf-syntax-ns#">
   <cc:Work>
    <dc:type rdf:resource="http://purl.org/dc/dcmitype/StillImage"/>
    <dc:date>2026-04-01T12:10:26.762709</dc:date>
    <dc:format>image/svg+xml</dc:format>
    <dc:creator>
     <cc:Agent>
      <dc:title>Matplotlib v3.10.8, https://matplotlib.org/</dc:title>
     </cc:Agent>
    </dc:creator>
   </cc:Work>
  </rdf:RDF>
 </metadata>
 <defs>
  <style type="text/css">*{stroke-linejoin: round; stroke-linecap: butt}</style>
 </defs>
 <g id="figure_1">
  <g id="patch_1">
   <path d="M 0 348.980876 
L 566.6725 348.980876 
L 566.6725 0 
L 0 0 
z
" style="fill: #ffffff"/>
  </g>
  <g id="axes_1">
   <g id="patch_2">
    <path d="M 62.2725 307.553376 
L 559.4725 307.553376 
L 559.4725 37.304676 
L 62.2725 37.304676 
z
" style="fill: #ffffff"/>
   </g>
   <g id="matplotlib.axis_1">
    <g id="xtick_1">
     <g id="line2d_1">
      <path d="M 152.905279 307.553376 
L 152.905279 37.304676 
" clip-path="url(#p8a1989b31e)" style="fill: none; stroke: #b0b0b0; stroke-opacity: 0.3; stroke-width: 0.8; stroke-linecap: square"/>
     </g>
     <g id="line2d_2">
      <defs>
       <path id="m7a6feb1aa5" d="M 0 0 
L 0 3.5 
" style="stroke: #000000; stroke-width: 0.8"/>
      </defs>
      <g>
       <use xlink:href="#m7a6feb1aa5" x="152.905279" y="307.553376" style="stroke: #000000; stroke-width: 0.8"/>
      </g>
     </g>
     <g id="text_1">
      <!-- $\mathdefault{10^{-2}}$ -->
      <g transform="translate(139.980279 322.911657) scale(0.11 -0.11)">
       <defs>
        <path id="DejaVuSans-31" d="M 794 531 
L 1825 531 
L 1825 4091 
L 703 3866 
L 703 4441 
L 1819 4666 
L 2450 4666 
L 2450 531 
L 3481 531 
L 3481 0 
L 794 0 
L 794 531 
z
" transform="scale(0.015625)"/>
        <path id="DejaVuSans-30" d="M 2034 4250 
Q 1547 4250 1301 3770 
Q 1056 3291 1056 2328 
Q 1056 1369 1301 889 
Q 1547 409 2034 409 
Q 2525 409 2770 889 
Q 3016 1369 3016 2328 
Q 3016 3291 2770 3770 
Q 2525 4250 2034 4250 
z
M 2034 4750 
Q 2819 4750 3233 4129 
Q 3647 3509 3647 2328 
Q 3647 1150 3233 529 
Q 2819 -91 2034 -91 
Q 1250 -91 836 529 
Q 422 1150 422 2328 
Q 422 3509 836 4129 
Q 1250 4750 2034 4750 
z
" transform="scale(0.015625)"/>
        <path id="DejaVuSans-2212" d="M 678 2272 
L 4684 2272 
L 4684 1741 
L 678 1741 
L 678 2272 
z
" transform="scale(0.015625)"/>
        <path id="DejaVuSans-32" d="M 1228 531 
L 3431 531 
L 3431 0 
L 469 0 
L 469 531 
Q 828 903 1448 1529 
Q 2069 2156 2228 2338 
Q 2531 2678 2651 2914 
Q 2772 3150 2772 3378 
Q 2772 3750 2511 3984 
Q 2250 4219 1831 4219 
Q 1534 4219 1204 4116 
Q 875 4013 500 3803 
L 500 4441 
Q 881 4594 1212 4672 
Q 1544 4750 1819 4750 
Q 2544 4750 2975 4387 
Q 3406 4025 3406 3419 
Q 3406 3131 3298 2873 
Q 3191 2616 2906 2266 
Q 2828 2175 2409 1742 
Q 1991 1309 1228 531 
z
" transform="scale(0.015625)"/>
       </defs>
       <use xlink:href="#DejaVuSans-31" transform="translate(0 0.765625)"/>
       <use xlink:href="#DejaVuSans-30" transform="translate(63.623047 0.765625)"/>
       <use xlink:href="#DejaVuSans-2212" transform="translate(128.203125 39.046875) scale(0.7)"/>
       <use xlink:href="#DejaVuSans-32" transform="translate(186.855469 39.046875) scale(0.7)"/>
      </g>
     </g>
    </g>
    <g id="xtick_2">
     <g id="line2d_3">
      <path d="M 378.905279 307.553376 
L 378.905279 37.304676 
" clip-path="url(#p8a1989b31e)" style="fill: none; stroke: #b0b0b0; stroke-opacity: 0.3; stroke-width: 0.8; stroke-linecap: square"/>
     </g>
     <g id="line2d_4">
      <g>
       <use xlink:href="#m7a6feb1aa5" x="378.905279" y="307.553376" style="stroke: #000000; stroke-width: 0.8"/>
      </g>
     </g>
     <g id="text_2">
      <!-- $\mathdefault{10^{-1}}$ -->
      <g transform="translate(365.980279 322.911657) scale(0.11 -0.11)">
       <use xlink:href="#DejaVuSans-31" transform="translate(0 0.684375)"/>
       <use xlink:href="#DejaVuSans-30" transform="translate(63.623047 0.684375)"/>
       <use xlink:href="#DejaVuSans-2212" transform="translate(128.203125 38.965625) scale(0.7)"/>
       <use xlink:href="#DejaVuSans-31" transform="translate(186.855469 38.965625) scale(0.7)"/>
      </g>
     </g>
    </g>
    <g id="xtick_3">
     <g id="line2d_5">
      <defs>
       <path id="m89b0165f7c" d="M 0 0 
L 0 2 
" style="stroke: #000000; stroke-width: 0.6"/>
      </defs>
      <g>
       <use xlink:href="#m89b0165f7c" x="62.970837" y="307.553376" style="stroke: #000000; stroke-width: 0.6"/>
      </g>
     </g>
    </g>
    <g id="xtick_4">
     <g id="line2d_6">
      <g>
       <use xlink:href="#m89b0165f7c" x="84.8725" y="307.553376" style="stroke: #000000; stroke-width: 0.6"/>
      </g>
     </g>
    </g>
    <g id="xtick_5">
     <g id="line2d_7">
      <g>
       <use xlink:href="#m89b0165f7c" x="102.767462" y="307.553376" style="stroke: #000000; stroke-width: 0.6"/>
      </g>
     </g>
    </g>
    <g id="xtick_6">
     <g id="line2d_8">
      <g>
       <use xlink:href="#m89b0165f7c" x="117.897436" y="307.553376" style="stroke: #000000; stroke-width: 0.6"/>
      </g>
     </g>
    </g>
    <g id="xtick_7">
     <g id="line2d_9">
      <g>
       <use xlink:href="#m89b0165f7c" x="131.003616" y="307.553376" style="stroke: #000000; stroke-width: 0.6"/>
      </g>
     </g>
    </g>
    <g id="xtick_8">
     <g id="line2d_10">
      <g>
       <use xlink:href="#m89b0165f7c" x="142.564086" y="307.553376" style="stroke: #000000; stroke-width: 0.6"/>
      </g>
     </g>
    </g>
    <g id="xtick_9">
     <g id="line2d_11">
      <g>
       <use xlink:href="#m89b0165f7c" x="220.938058" y="307.553376" style="stroke: #000000; stroke-width: 0.6"/>
      </g>
     </g>
    </g>
    <g id="xtick_10">
     <g id="line2d_12">
      <g>
       <use xlink:href="#m89b0165f7c" x="260.734683" y="307.553376" style="stroke: #000000; stroke-width: 0.6"/>
      </g>
     </g>
    </g>
    <g id="xtick_11">
     <g id="line2d_13">
      <g>
       <use xlink:href="#m89b0165f7c" x="288.970837" y="307.553376" style="stroke: #000000; stroke-width: 0.6"/>
      </g>
     </g>
    </g>
    <g id="xtick_12">
     <g id="line2d_14">
      <g>
       <use xlink:href="#m89b0165f7c" x="310.8725" y="307.553376" style="stroke: #000000; stroke-width: 0.6"/>
      </g>
     </g>
    </g>
    <g id="xtick_13">
     <g id="line2d_15">
      <g>
       <use xlink:href="#m89b0165f7c" x="328.767462" y="307.553376" style="stroke: #000000; stroke-width: 0.6"/>
      </g>
     </g>
    </g>
    <g id="xtick_14">
     <g id="line2d_16">
      <g>
       <use xlink:href="#m89b0165f7c" x="343.897436" y="307.553376" style="stroke: #000000; stroke-width: 0.6"/>
      </g>
     </g>
    </g>
    <g id="xtick_15">
     <g id="line2d_17">
      <g>
       <use xlink:href="#m89b0165f7c" x="357.003616" y="307.553376" style="stroke: #000000; stroke-width: 0.6"/>
      </g>
     </g>
    </g>
    <g id="xtick_16">
     <g id="line2d_18">
      <g>
       <use xlink:href="#m89b0165f7c" x="368.564086" y="307.553376" style="stroke: #000000; stroke-width: 0.6"/>
      </g>
     </g>
    </g>
    <g id="xtick_17">
     <g id="line2d_19">
      <g>
       <use xlink:href="#m89b0165f7c" x="446.938058" y="307.553376" style="stroke: #000000; stroke-width: 0.6"/>
      </g>
     </g>
    </g>
    <g id="xtick_18">
     <g id="line2d_20">
      <g>
       <use xlink:href="#m89b0165f7c" x="486.734683" y="307.553376" style="stroke: #000000; stroke-width: 0.6"/>
      </g>
     </g>
    </g>
    <g id="xtick_19">
     <g id="line2d_21">
      <g>
       <use xlink:href="#m89b0165f7c" x="514.970837" y="307.553376" style="stroke: #000000; stroke-width: 0.6"/>
      </g>
     </g>
    </g>
    <g id="xtick_20">
     <g id="line2d_22">
      <g>
       <use xlink:href="#m89b0165f7c" x="536.8725" y="307.553376" style="stroke: #000000; stroke-width: 0.6"/>
      </g>
     </g>
    </g>
    <g id="xtick_21">
     <g id="line2d_23">
      <g>
       <use xlink:href="#m89b0165f7c" x="554.767462" y="307.553376" style="stroke: #000000; stroke-width: 0.6"/>
      </g>
     </g>
    </g>
    <g id="text_3">
     <!-- Global Coupling Strength (G) -->
     <g transform="translate(217.098828 339.077282) scale(0.13 -0.13)">
      <defs>
       <path id="DejaVuSans-47" d="M 3809 666 
L 3809 1919 
L 2778 1919 
L 2778 2438 
L 4434 2438 
L 4434 434 
Q 4069 175 3628 42 
Q 3188 -91 2688 -91 
Q 1594 -91 976 548 
Q 359 1188 359 2328 
Q 359 3472 976 4111 
Q 1594 4750 2688 4750 
Q 3144 4750 3555 4637 
Q 3966 4525 4313 4306 
L 4313 3634 
Q 3963 3931 3569 4081 
Q 3175 4231 2741 4231 
Q 1884 4231 1454 3753 
Q 1025 3275 1025 2328 
Q 1025 1384 1454 906 
Q 1884 428 2741 428 
Q 3075 428 3337 486 
Q 3600 544 3809 666 
z
" transform="scale(0.015625)"/>
       <path id="DejaVuSans-6c" d="M 603 4863 
L 1178 4863 
L 1178 0 
L 603 0 
L 603 4863 
z
" transform="scale(0.015625)"/>
       <path id="DejaVuSans-6f" d="M 1959 3097 
Q 1497 3097 1228 2736 
Q 959 2375 959 1747 
Q 959 1119 1226 758 
Q 1494 397 1959 397 
Q 2419 397 2687 759 
Q 2956 1122 2956 1747 
Q 2956 2369 2687 2733 
Q 2419 3097 1959 3097 
z
M 1959 3584 
Q 2709 3584 3137 3096 
Q 3566 2609 3566 1747 
Q 3566 888 3137 398 
Q 2709 -91 1959 -91 
Q 1206 -91 779 398 
Q 353 888 353 1747 
Q 353 2609 779 3096 
Q 1206 3584 1959 3584 
z
" transform="scale(0.015625)"/>
       <path id="DejaVuSans-62" d="M 3116 1747 
Q 3116 2381 2855 2742 
Q 2594 3103 2138 3103 
Q 1681 3103 1420 2742 
Q 1159 2381 1159 1747 
Q 1159 1113 1420 752 
Q 1681 391 2138 391 
Q 2594 391 2855 752 
Q 3116 1113 3116 1747 
z
M 1159 2969 
Q 1341 3281 1617 3432 
Q 1894 3584 2278 3584 
Q 2916 3584 3314 3078 
Q 3713 2572 3713 1747 
Q 3713 922 3314 415 
Q 2916 -91 2278 -91 
Q 1894 -91 1617 61 
Q 1341 213 1159 525 
L 1159 0 
L 581 0 
L 581 4863 
L 1159 4863 
L 1159 2969 
z
" transform="scale(0.015625)"/>
       <path id="DejaVuSans-61" d="M 2194 1759 
Q 1497 1759 1228 1600 
Q 959 1441 959 1056 
Q 959 750 1161 570 
Q 1363 391 1709 391 
Q 2188 391 2477 730 
Q 2766 1069 2766 1631 
L 2766 1759 
L 2194 1759 
z
M 3341 1997 
L 3341 0 
L 2766 0 
L 2766 531 
Q 2569 213 2275 61 
Q 1981 -91 1556 -91 
Q 1019 -91 701 211 
Q 384 513 384 1019 
Q 384 1609 779 1909 
Q 1175 2209 1959 2209 
L 2766 2209 
L 2766 2266 
Q 2766 2663 2505 2880 
Q 2244 3097 1772 3097 
Q 1472 3097 1187 3025 
Q 903 2953 641 2809 
L 641 3341 
Q 956 3463 1253 3523 
Q 1550 3584 1831 3584 
Q 2591 3584 2966 3190 
Q 3341 2797 3341 1997 
z
" transform="scale(0.015625)"/>
       <path id="DejaVuSans-20" transform="scale(0.015625)"/>
       <path id="DejaVuSans-43" d="M 4122 4306 
L 4122 3641 
Q 3803 3938 3442 4084 
Q 3081 4231 2675 4231 
Q 1875 4231 1450 3742 
Q 1025 3253 1025 2328 
Q 1025 1406 1450 917 
Q 1875 428 2675 428 
Q 3081 428 3442 575 
Q 3803 722 4122 1019 
L 4122 359 
Q 3791 134 3420 21 
Q 3050 -91 2638 -91 
Q 1578 -91 968 557 
Q 359 1206 359 2328 
Q 359 3453 968 4101 
Q 1578 4750 2638 4750 
Q 3056 4750 3426 4639 
Q 3797 4528 4122 4306 
z
" transform="scale(0.015625)"/>
       <path id="DejaVuSans-75" d="M 544 1381 
L 544 3500 
L 1119 3500 
L 1119 1403 
Q 1119 906 1312 657 
Q 1506 409 1894 409 
Q 2359 409 2629 706 
Q 2900 1003 2900 1516 
L 2900 3500 
L 3475 3500 
L 3475 0 
L 2900 0 
L 2900 538 
Q 2691 219 2414 64 
Q 2138 -91 1772 -91 
Q 1169 -91 856 284 
Q 544 659 544 1381 
z
M 1991 3584 
L 1991 3584 
z
" transform="scale(0.015625)"/>
       <path id="DejaVuSans-70" d="M 1159 525 
L 1159 -1331 
L 581 -1331 
L 581 3500 
L 1159 3500 
L 1159 2969 
Q 1341 3281 1617 3432 
Q 1894 3584 2278 3584 
Q 2916 3584 3314 3078 
Q 3713 2572 3713 1747 
Q 3713 922 3314 415 
Q 2916 -91 2278 -91 
Q 1894 -91 1617 61 
Q 1341 213 1159 525 
z
M 3116 1747 
Q 3116 2381 2855 2742 
Q 2594 3103 2138 3103 
Q 1681 3103 1420 2742 
Q 1159 2381 1159 1747 
Q 1159 1113 1420 752 
Q 1681 391 2138 391 
Q 2594 391 2855 752 
Q 3116 1113 3116 1747 
z
" transform="scale(0.015625)"/>
       <path id="DejaVuSans-69" d="M 603 3500 
L 1178 3500 
L 1178 0 
L 603 0 
L 603 3500 
z
M 603 4863 
L 1178 4863 
L 1178 4134 
L 603 4134 
L 603 4863 
z
" transform="scale(0.015625)"/>
       <path id="DejaVuSans-6e" d="M 3513 2113 
L 3513 0 
L 2938 0 
L 2938 2094 
Q 2938 2591 2744 2837 
Q 2550 3084 2163 3084 
Q 1697 3084 1428 2787 
Q 1159 2491 1159 1978 
L 1159 0 
L 581 0 
L 581 3500 
L 1159 3500 
L 1159 2956 
Q 1366 3272 1645 3428 
Q 1925 3584 2291 3584 
Q 2894 3584 3203 3211 
Q 3513 2838 3513 2113 
z
" transform="scale(0.015625)"/>
       <path id="DejaVuSans-67" d="M 2906 1791 
Q 2906 2416 2648 2759 
Q 2391 3103 1925 3103 
Q 1463 3103 1205 2759 
Q 947 2416 947 1791 
Q 947 1169 1205 825 
Q 1463 481 1925 481 
Q 2391 481 2648 825 
Q 2906 1169 2906 1791 
z
M 3481 434 
Q 3481 -459 3084 -895 
Q 2688 -1331 1869 -1331 
Q 1566 -1331 1297 -1286 
Q 1028 -1241 775 -1147 
L 775 -588 
Q 1028 -725 1275 -790 
Q 1522 -856 1778 -856 
Q 2344 -856 2625 -561 
Q 2906 -266 2906 331 
L 2906 616 
Q 2728 306 2450 153 
Q 2172 0 1784 0 
Q 1141 0 747 490 
Q 353 981 353 1791 
Q 353 2603 747 3093 
Q 1141 3584 1784 3584 
Q 2172 3584 2450 3431 
Q 2728 3278 2906 2969 
L 2906 3500 
L 3481 3500 
L 3481 434 
z
" transform="scale(0.015625)"/>
       <path id="DejaVuSans-53" d="M 3425 4513 
L 3425 3897 
Q 3066 4069 2747 4153 
Q 2428 4238 2131 4238 
Q 1616 4238 1336 4038 
Q 1056 3838 1056 3469 
Q 1056 3159 1242 3001 
Q 1428 2844 1947 2747 
L 2328 2669 
Q 3034 2534 3370 2195 
Q 3706 1856 3706 1288 
Q 3706 609 3251 259 
Q 2797 -91 1919 -91 
Q 1588 -91 1214 -16 
Q 841 59 441 206 
L 441 856 
Q 825 641 1194 531 
Q 1563 422 1919 422 
Q 2459 422 2753 634 
Q 3047 847 3047 1241 
Q 3047 1584 2836 1778 
Q 2625 1972 2144 2069 
L 1759 2144 
Q 1053 2284 737 2584 
Q 422 2884 422 3419 
Q 422 4038 858 4394 
Q 1294 4750 2059 4750 
Q 2388 4750 2728 4690 
Q 3069 4631 3425 4513 
z
" transform="scale(0.015625)"/>
       <path id="DejaVuSans-74" d="M 1172 4494 
L 1172 3500 
L 2356 3500 
L 2356 3053 
L 1172 3053 
L 1172 1153 
Q 1172 725 1289 603 
Q 1406 481 1766 481 
L 2356 481 
L 2356 0 
L 1766 0 
Q 1100 0 847 248 
Q 594 497 594 1153 
L 594 3053 
L 172 3053 
L 172 3500 
L 594 3500 
L 594 4494 
L 1172 4494 
z
" transform="scale(0.015625)"/>
       <path id="DejaVuSans-72" d="M 2631 2963 
Q 2534 3019 2420 3045 
Q 2306 3072 2169 3072 
Q 1681 3072 1420 2755 
Q 1159 2438 1159 1844 
L 1159 0 
L 581 0 
L 581 3500 
L 1159 3500 
L 1159 2956 
Q 1341 3275 1631 3429 
Q 1922 3584 2338 3584 
Q 2397 3584 2469 3576 
Q 2541 3569 2628 3553 
L 2631 2963 
z
" transform="scale(0.015625)"/>
       <path id="DejaVuSans-65" d="M 3597 1894 
L 3597 1613 
L 953 1613 
Q 991 1019 1311 708 
Q 1631 397 2203 397 
Q 2534 397 2845 478 
Q 3156 559 3463 722 
L 3463 178 
Q 3153 47 2828 -22 
Q 2503 -91 2169 -91 
Q 1331 -91 842 396 
Q 353 884 353 1716 
Q 353 2575 817 3079 
Q 1281 3584 2069 3584 
Q 2775 3584 3186 3129 
Q 3597 2675 3597 1894 
z
M 3022 2063 
Q 3016 2534 2758 2815 
Q 2500 3097 2075 3097 
Q 1594 3097 1305 2825 
Q 1016 2553 972 2059 
L 3022 2063 
z
" transform="scale(0.015625)"/>
       <path id="DejaVuSans-68" d="M 3513 2113 
L 3513 0 
L 2938 0 
L 2938 2094 
Q 2938 2591 2744 2837 
Q 2550 3084 2163 3084 
Q 1697 3084 1428 2787 
Q 1159 2491 1159 1978 
L 1159 0 
L 581 0 
L 581 4863 
L 1159 4863 
L 1159 2956 
Q 1366 3272 1645 3428 
Q 1925 3584 2291 3584 
Q 2894 3584 3203 3211 
Q 3513 2838 3513 2113 
z
" transform="scale(0.015625)"/>
       <path id="DejaVuSans-28" d="M 1984 4856 
Q 1566 4138 1362 3434 
Q 1159 2731 1159 2009 
Q 1159 1288 1364 580 
Q 1569 -128 1984 -844 
L 1484 -844 
Q 1016 -109 783 600 
Q 550 1309 550 2009 
Q 550 2706 781 3412 
Q 1013 4119 1484 4856 
L 1984 4856 
z
" transform="scale(0.015625)"/>
       <path id="DejaVuSans-29" d="M 513 4856 
L 1013 4856 
Q 1481 4119 1714 3412 
Q 1947 2706 1947 2009 
Q 1947 1309 1714 600 
Q 1481 -109 1013 -844 
L 513 -844 
Q 928 -128 1133 580 
Q 1338 1288 1338 2009 
Q 1338 2731 1133 3434 
Q 928 4138 513 4856 
z
" transform="scale(0.015625)"/>
      </defs>
      <use xlink:href="#DejaVuSans-47"/>
      <use xlink:href="#DejaVuSans-6c" transform="translate(77.490234 0)"/>
      <use xlink:href="#DejaVuSans-6f" transform="translate(105.273438 0)"/>
      <use xlink:href="#DejaVuSans-62" transform="translate(166.455078 0)"/>
      <use xlink:href="#DejaVuSans-61" transform="translate(229.931641 0)"/>
      <use xlink:href="#DejaVuSans-6c" transform="translate(291.210938 0)"/>
      <use xlink:href="#DejaVuSans-20" transform="translate(318.994141 0)"/>
      <use xlink:href="#DejaVuSans-43" transform="translate(350.78125 0)"/>
      <use xlink:href="#DejaVuSans-6f" transform="translate(420.605469 0)"/>
      <use xlink:href="#DejaVuSans-75" transform="translate(481.787109 0)"/>
      <use xlink:href="#DejaVuSans-70" transform="translate(545.166016 0)"/>
      <use xlink:href="#DejaVuSans-6c" transform="translate(608.642578 0)"/>
      <use xlink:href="#DejaVuSans-69" transform="translate(636.425781 0)"/>
      <use xlink:href="#DejaVuSans-6e" transform="translate(664.208984 0)"/>
      <use xlink:href="#DejaVuSans-67" transform="translate(727.587891 0)"/>
      <use xlink:href="#DejaVuSans-20" transform="translate(791.064453 0)"/>
      <use xlink:href="#DejaVuSans-53" transform="translate(822.851562 0)"/>
      <use xlink:href="#DejaVuSans-74" transform="translate(886.328125 0)"/>
      <use xlink:href="#DejaVuSans-72" transform="translate(925.537109 0)"/>
      <use xlink:href="#DejaVuSans-65" transform="translate(964.400391 0)"/>
      <use xlink:href="#DejaVuSans-6e" transform="translate(1025.923828 0)"/>
      <use xlink:href="#DejaVuSans-67" transform="translate(1089.302734 0)"/>
      <use xlink:href="#DejaVuSans-74" transform="translate(1152.779297 0)"/>
      <use xlink:href="#DejaVuSans-68" transform="translate(1191.988281 0)"/>
      <use xlink:href="#DejaVuSans-20" transform="translate(1255.367188 0)"/>
      <use xlink:href="#DejaVuSans-28" transform="translate(1287.154297 0)"/>
      <use xlink:href="#DejaVuSans-47" transform="translate(1326.167969 0)"/>
      <use xlink:href="#DejaVuSans-29" transform="translate(1403.658203 0)"/>
     </g>
    </g>
   </g>
   <g id="matplotlib.axis_2">
    <g id="ytick_1">
     <g id="line2d_24">
      <path d="M 62.2725 295.296831 
L 559.4725 295.296831 
" clip-path="url(#p8a1989b31e)" style="fill: none; stroke: #b0b0b0; stroke-opacity: 0.3; stroke-width: 0.8; stroke-linecap: square"/>
     </g>
     <g id="line2d_25">
      <defs>
       <path id="m7b154a81cf" d="M 0 0 
L -3.5 0 
" style="stroke: #000000; stroke-width: 0.8"/>
      </defs>
      <g>
       <use xlink:href="#m7b154a81cf" x="62.2725" y="295.296831" style="stroke: #000000; stroke-width: 0.8"/>
      </g>
     </g>
     <g id="text_4">
      <!-- 0.000 -->
      <g transform="translate(23.781563 299.475972) scale(0.11 -0.11)">
       <defs>
        <path id="DejaVuSans-2e" d="M 684 794 
L 1344 794 
L 1344 0 
L 684 0 
L 684 794 
z
" transform="scale(0.015625)"/>
       </defs>
       <use xlink:href="#DejaVuSans-30"/>
       <use xlink:href="#DejaVuSans-2e" transform="translate(63.623047 0)"/>
       <use xlink:href="#DejaVuSans-30" transform="translate(95.410156 0)"/>
       <use xlink:href="#DejaVuSans-30" transform="translate(159.033203 0)"/>
       <use xlink:href="#DejaVuSans-30" transform="translate(222.65625 0)"/>
      </g>
     </g>
    </g>
    <g id="ytick_2">
     <g id="line2d_26">
      <path d="M 62.2725 262.491043 
L 559.4725 262.491043 
" clip-path="url(#p8a1989b31e)" style="fill: none; stroke: #b0b0b0; stroke-opacity: 0.3; stroke-width: 0.8; stroke-linecap: square"/>
     </g>
     <g id="line2d_27">
      <g>
       <use xlink:href="#m7b154a81cf" x="62.2725" y="262.491043" style="stroke: #000000; stroke-width: 0.8"/>
      </g>
     </g>
     <g id="text_5">
      <!-- 0.025 -->
      <g transform="translate(23.781563 266.670183) scale(0.11 -0.11)">
       <defs>
        <path id="DejaVuSans-35" d="M 691 4666 
L 3169 4666 
L 3169 4134 
L 1269 4134 
L 1269 2991 
Q 1406 3038 1543 3061 
Q 1681 3084 1819 3084 
Q 2600 3084 3056 2656 
Q 3513 2228 3513 1497 
Q 3513 744 3044 326 
Q 2575 -91 1722 -91 
Q 1428 -91 1123 -41 
Q 819 9 494 109 
L 494 744 
Q 775 591 1075 516 
Q 1375 441 1709 441 
Q 2250 441 2565 725 
Q 2881 1009 2881 1497 
Q 2881 1984 2565 2268 
Q 2250 2553 1709 2553 
Q 1456 2553 1204 2497 
Q 953 2441 691 2322 
L 691 4666 
z
" transform="scale(0.015625)"/>
       </defs>
       <use xlink:href="#DejaVuSans-30"/>
       <use xlink:href="#DejaVuSans-2e" transform="translate(63.623047 0)"/>
       <use xlink:href="#DejaVuSans-30" transform="translate(95.410156 0)"/>
       <use xlink:href="#DejaVuSans-32" transform="translate(159.033203 0)"/>
       <use xlink:href="#DejaVuSans-35" transform="translate(222.65625 0)"/>
      </g>
     </g>
    </g>
    <g id="ytick_3">
     <g id="line2d_28">
      <path d="M 62.2725 229.685254 
L 559.4725 229.685254 
" clip-path="url(#p8a1989b31e)" style="fill: none; stroke: #b0b0b0; stroke-opacity: 0.3; stroke-width: 0.8; stroke-linecap: square"/>
     </g>
     <g id="line2d_29">
      <g>
       <use xlink:href="#m7b154a81cf" x="62.2725" y="229.685254" style="stroke: #000000; stroke-width: 0.8"/>
      </g>
     </g>
     <g id="text_6">
      <!-- 0.050 -->
      <g transform="translate(23.781563 233.864395) scale(0.11 -0.11)">
       <use xlink:href="#DejaVuSans-30"/>
       <use xlink:href="#DejaVuSans-2e" transform="translate(63.623047 0)"/>
       <use xlink:href="#DejaVuSans-30" transform="translate(95.410156 0)"/>
       <use xlink:href="#DejaVuSans-35" transform="translate(159.033203 0)"/>
       <use xlink:href="#DejaVuSans-30" transform="translate(222.65625 0)"/>
      </g>
     </g>
    </g>
    <g id="ytick_4">
     <g id="line2d_30">
      <path d="M 62.2725 196.879466 
L 559.4725 196.879466 
" clip-path="url(#p8a1989b31e)" style="fill: none; stroke: #b0b0b0; stroke-opacity: 0.3; stroke-width: 0.8; stroke-linecap: square"/>
     </g>
     <g id="line2d_31">
      <g>
       <use xlink:href="#m7b154a81cf" x="62.2725" y="196.879466" style="stroke: #000000; stroke-width: 0.8"/>
      </g>
     </g>
     <g id="text_7">
      <!-- 0.075 -->
      <g transform="translate(23.781563 201.058607) scale(0.11 -0.11)">
       <defs>
        <path id="DejaVuSans-37" d="M 525 4666 
L 3525 4666 
L 3525 4397 
L 1831 0 
L 1172 0 
L 2766 4134 
L 525 4134 
L 525 4666 
z
" transform="scale(0.015625)"/>
       </defs>
       <use xlink:href="#DejaVuSans-30"/>
       <use xlink:href="#DejaVuSans-2e" transform="translate(63.623047 0)"/>
       <use xlink:href="#DejaVuSans-30" transform="translate(95.410156 0)"/>
       <use xlink:href="#DejaVuSans-37" transform="translate(159.033203 0)"/>
       <use xlink:href="#DejaVuSans-35" transform="translate(222.65625 0)"/>
      </g>
     </g>
    </g>
    <g id="ytick_5">
     <g id="line2d_32">
      <path d="M 62.2725 164.073678 
L 559.4725 164.073678 
" clip-path="url(#p8a1989b31e)" style="fill: none; stroke: #b0b0b0; stroke-opacity: 0.3; stroke-width: 0.8; stroke-linecap: square"/>
     </g>
     <g id="line2d_33">
      <g>
       <use xlink:href="#m7b154a81cf" x="62.2725" y="164.073678" style="stroke: #000000; stroke-width: 0.8"/>
      </g>
     </g>
     <g id="text_8">
      <!-- 0.100 -->
      <g transform="translate(23.781563 168.252818) scale(0.11 -0.11)">
       <use xlink:href="#DejaVuSans-30"/>
       <use xlink:href="#DejaVuSans-2e" transform="translate(63.623047 0)"/>
       <use xlink:href="#DejaVuSans-31" transform="translate(95.410156 0)"/>
       <use xlink:href="#DejaVuSans-30" transform="translate(159.033203 0)"/>
       <use xlink:href="#DejaVuSans-30" transform="translate(222.65625 0)"/>
      </g>
     </g>
    </g>
    <g id="ytick_6">
     <g id="line2d_34">
      <path d="M 62.2725 131.267889 
L 559.4725 131.267889 
" clip-path="url(#p8a1989b31e)" style="fill: none; stroke: #b0b0b0; stroke-opacity: 0.3; stroke-width: 0.8; stroke-linecap: square"/>
     </g>
     <g id="line2d_35">
      <g>
       <use xlink:href="#m7b154a81cf" x="62.2725" y="131.267889" style="stroke: #000000; stroke-width: 0.8"/>
      </g>
     </g>
     <g id="text_9">
      <!-- 0.125 -->
      <g transform="translate(23.781563 135.44703) scale(0.11 -0.11)">
       <use xlink:href="#DejaVuSans-30"/>
       <use xlink:href="#DejaVuSans-2e" transform="translate(63.623047 0)"/>
       <use xlink:href="#DejaVuSans-31" transform="translate(95.410156 0)"/>
       <use xlink:href="#DejaVuSans-32" transform="translate(159.033203 0)"/>
       <use xlink:href="#DejaVuSans-35" transform="translate(222.65625 0)"/>
      </g>
     </g>
    </g>
    <g id="ytick_7">
     <g id="line2d_36">
      <path d="M 62.2725 98.462101 
L 559.4725 98.462101 
" clip-path="url(#p8a1989b31e)" style="fill: none; stroke: #b0b0b0; stroke-opacity: 0.3; stroke-width: 0.8; stroke-linecap: square"/>
     </g>
     <g id="line2d_37">
      <g>
       <use xlink:href="#m7b154a81cf" x="62.2725" y="98.462101" style="stroke: #000000; stroke-width: 0.8"/>
      </g>
     </g>
     <g id="text_10">
      <!-- 0.150 -->
      <g transform="translate(23.781563 102.641242) scale(0.11 -0.11)">
       <use xlink:href="#DejaVuSans-30"/>
       <use xlink:href="#DejaVuSans-2e" transform="translate(63.623047 0)"/>
       <use xlink:href="#DejaVuSans-31" transform="translate(95.410156 0)"/>
       <use xlink:href="#DejaVuSans-35" transform="translate(159.033203 0)"/>
       <use xlink:href="#DejaVuSans-30" transform="translate(222.65625 0)"/>
      </g>
     </g>
    </g>
    <g id="ytick_8">
     <g id="line2d_38">
      <path d="M 62.2725 65.656313 
L 559.4725 65.656313 
" clip-path="url(#p8a1989b31e)" style="fill: none; stroke: #b0b0b0; stroke-opacity: 0.3; stroke-width: 0.8; stroke-linecap: square"/>
     </g>
     <g id="line2d_39">
      <g>
       <use xlink:href="#m7b154a81cf" x="62.2725" y="65.656313" style="stroke: #000000; stroke-width: 0.8"/>
      </g>
     </g>
     <g id="text_11">
      <!-- 0.175 -->
      <g transform="translate(23.781563 69.835453) scale(0.11 -0.11)">
       <use xlink:href="#DejaVuSans-30"/>
       <use xlink:href="#DejaVuSans-2e" transform="translate(63.623047 0)"/>
       <use xlink:href="#DejaVuSans-31" transform="translate(95.410156 0)"/>
       <use xlink:href="#DejaVuSans-37" transform="translate(159.033203 0)"/>
       <use xlink:href="#DejaVuSans-35" transform="translate(222.65625 0)"/>
      </g>
     </g>
    </g>
    <g id="text_12">
     <!-- Global Variance (oscillation strength) -->
     <g transform="translate(17.077969 292.674963) rotate(-90) scale(0.13 -0.13)">
      <defs>
       <path id="DejaVuSans-56" d="M 1831 0 
L 50 4666 
L 709 4666 
L 2188 738 
L 3669 4666 
L 4325 4666 
L 2547 0 
L 1831 0 
z
" transform="scale(0.015625)"/>
       <path id="DejaVuSans-63" d="M 3122 3366 
L 3122 2828 
Q 2878 2963 2633 3030 
Q 2388 3097 2138 3097 
Q 1578 3097 1268 2742 
Q 959 2388 959 1747 
Q 959 1106 1268 751 
Q 1578 397 2138 397 
Q 2388 397 2633 464 
Q 2878 531 3122 666 
L 3122 134 
Q 2881 22 2623 -34 
Q 2366 -91 2075 -91 
Q 1284 -91 818 406 
Q 353 903 353 1747 
Q 353 2603 823 3093 
Q 1294 3584 2113 3584 
Q 2378 3584 2631 3529 
Q 2884 3475 3122 3366 
z
" transform="scale(0.015625)"/>
       <path id="DejaVuSans-73" d="M 2834 3397 
L 2834 2853 
Q 2591 2978 2328 3040 
Q 2066 3103 1784 3103 
Q 1356 3103 1142 2972 
Q 928 2841 928 2578 
Q 928 2378 1081 2264 
Q 1234 2150 1697 2047 
L 1894 2003 
Q 2506 1872 2764 1633 
Q 3022 1394 3022 966 
Q 3022 478 2636 193 
Q 2250 -91 1575 -91 
Q 1294 -91 989 -36 
Q 684 19 347 128 
L 347 722 
Q 666 556 975 473 
Q 1284 391 1588 391 
Q 1994 391 2212 530 
Q 2431 669 2431 922 
Q 2431 1156 2273 1281 
Q 2116 1406 1581 1522 
L 1381 1569 
Q 847 1681 609 1914 
Q 372 2147 372 2553 
Q 372 3047 722 3315 
Q 1072 3584 1716 3584 
Q 2034 3584 2315 3537 
Q 2597 3491 2834 3397 
z
" transform="scale(0.015625)"/>
      </defs>
      <use xlink:href="#DejaVuSans-47"/>
      <use xlink:href="#DejaVuSans-6c" transform="translate(77.490234 0)"/>
      <use xlink:href="#DejaVuSans-6f" transform="translate(105.273438 0)"/>
      <use xlink:href="#DejaVuSans-62" transform="translate(166.455078 0)"/>
      <use xlink:href="#DejaVuSans-61" transform="translate(229.931641 0)"/>
      <use xlink:href="#DejaVuSans-6c" transform="translate(291.210938 0)"/>
      <use xlink:href="#DejaVuSans-20" transform="translate(318.994141 0)"/>
      <use xlink:href="#DejaVuSans-56" transform="translate(350.78125 0)"/>
      <use xlink:href="#DejaVuSans-61" transform="translate(411.439453 0)"/>
      <use xlink:href="#DejaVuSans-72" transform="translate(472.71875 0)"/>
      <use xlink:href="#DejaVuSans-69" transform="translate(513.832031 0)"/>
      <use xlink:href="#DejaVuSans-61" transform="translate(541.615234 0)"/>
      <use xlink:href="#DejaVuSans-6e" transform="translate(602.894531 0)"/>
      <use xlink:href="#DejaVuSans-63" transform="translate(666.273438 0)"/>
      <use xlink:href="#DejaVuSans-65" transform="translate(721.253906 0)"/>
      <use xlink:href="#DejaVuSans-20" transform="translate(782.777344 0)"/>
      <use xlink:href="#DejaVuSans-28" transform="translate(814.564453 0)"/>
      <use xlink:href="#DejaVuSans-6f" transform="translate(853.578125 0)"/>
      <use xlink:href="#DejaVuSans-73" transform="translate(914.759766 0)"/>
      <use xlink:href="#DejaVuSans-63" transform="translate(966.859375 0)"/>
      <use xlink:href="#DejaVuSans-69" transform="translate(1021.839844 0)"/>
      <use xlink:href="#DejaVuSans-6c" transform="translate(1049.623047 0)"/>
      <use xlink:href="#DejaVuSans-6c" transform="translate(1077.40625 0)"/>
      <use xlink:href="#DejaVuSans-61" transform="translate(1105.189453 0)"/>
      <use xlink:href="#DejaVuSans-74" transform="translate(1166.46875 0)"/>
      <use xlink:href="#DejaVuSans-69" transform="translate(1205.677734 0)"/>
      <use xlink:href="#DejaVuSans-6f" transform="translate(1233.460938 0)"/>
      <use xlink:href="#DejaVuSans-6e" transform="translate(1294.642578 0)"/>
      <use xlink:href="#DejaVuSans-20" transform="translate(1358.021484 0)"/>
      <use xlink:href="#DejaVuSans-73" transform="translate(1389.808594 0)"/>
      <use xlink:href="#DejaVuSans-74" transform="translate(1441.908203 0)"/>
      <use xlink:href="#DejaVuSans-72" transform="translate(1481.117188 0)"/>
      <use xlink:href="#DejaVuSans-65" transform="translate(1519.980469 0)"/>
      <use xlink:href="#DejaVuSans-6e" transform="translate(1581.503906 0)"/>
      <use xlink:href="#DejaVuSans-67" transform="translate(1644.882812 0)"/>
      <use xlink:href="#DejaVuSans-74" transform="translate(1708.359375 0)"/>
      <use xlink:href="#DejaVuSans-68" transform="translate(1747.568359 0)"/>
      <use xlink:href="#DejaVuSans-29" transform="translate(1810.947266 0)"/>
     </g>
    </g>
   </g>
   <g id="line2d_40">
    <path d="M 84.8725 56.090943 
L 152.905279 52.321202 
L 310.8725 267.933404 
L 378.905279 276.632024 
L 468.839721 283.166161 
L 536.8725 289.160036 
" clip-path="url(#p8a1989b31e)" style="fill: none; stroke-dasharray: 7.4,3.2; stroke-dashoffset: 0; stroke: #e74c3c; stroke-opacity: 0.8; stroke-width: 2"/>
   </g>
   <g id="line2d_41">
    <path d="M 84.8725 55.802109 
L 152.905279 50.269023 
L 310.8725 295.142461 
L 378.905279 295.268551 
L 468.839721 295.269342 
L 536.8725 295.269344 
" clip-path="url(#p8a1989b31e)" style="fill: none; stroke-dasharray: 7.4,3.2; stroke-dashoffset: 0; stroke: #3498db; stroke-opacity: 0.8; stroke-width: 2"/>
   </g>
   <g id="line2d_42">
    <path d="M 84.8725 55.855535 
L 152.905279 49.588708 
L 310.8725 295.259607 
L 378.905279 295.268839 
L 468.839721 295.269344 
L 536.8725 295.269344 
" clip-path="url(#p8a1989b31e)" style="fill: none; stroke-dasharray: 7.4,3.2; stroke-dashoffset: 0; stroke: #2ecc71; stroke-opacity: 0.8; stroke-width: 2"/>
   </g>
   <g id="line2d_43">
    <path d="M 84.8725 56.042001 
L 152.905279 52.037551 
L 310.8725 268.919386 
L 378.905279 276.509907 
L 468.839721 282.457886 
L 536.8725 287.810981 
" clip-path="url(#p8a1989b31e)" style="fill: none; stroke-dasharray: 7.4,3.2; stroke-dashoffset: 0; stroke: #9b59b6; stroke-opacity: 0.8; stroke-width: 2"/>
   </g>
   <g id="line2d_44">
    <path d="M 84.8725 56.102481 
L 152.905279 52.14079 
L 310.8725 293.857891 
L 378.905279 295.267511 
L 468.839721 295.269325 
L 536.8725 295.269344 
" clip-path="url(#p8a1989b31e)" style="fill: none; stroke-dasharray: 7.4,3.2; stroke-dashoffset: 0; stroke: #f39c12; stroke-opacity: 0.8; stroke-width: 2"/>
   </g>
   <g id="patch_3">
    <path d="M 62.2725 307.553376 
L 62.2725 37.304676 
" style="fill: none; stroke: #000000; stroke-width: 1.2; stroke-linejoin: miter; stroke-linecap: square"/>
   </g>
   <g id="patch_4">
    <path d="M 62.2725 307.553376 
L 559.4725 307.553376 
" style="fill: none; stroke: #000000; stroke-width: 1.2; stroke-linejoin: miter; stroke-linecap: square"/>
   </g>
   <g id="patch_5">
    <path d="M 285.005157 28.593005 
Q 219.940888 40.240493 156.527426 51.592462 
" style="fill: none; stroke: #000000; stroke-width: 1.5; stroke-linecap: round"/>
    <path d="M 160.817262 52.85631 
L 156.527426 51.592462 
L 160.112406 48.918902 
" style="fill: none; stroke: #000000; stroke-width: 1.5; stroke-linecap: round"/>
   </g>
   <g id="text_13">
    <!-- Real connectome -->
    <g transform="translate(288.970837 14.798437) scale(0.1 -0.1)">
     <defs>
      <path id="DejaVuSans-Bold-52" d="M 2297 2597 
Q 2675 2597 2839 2737 
Q 3003 2878 3003 3200 
Q 3003 3519 2839 3656 
Q 2675 3794 2297 3794 
L 1791 3794 
L 1791 2597 
L 2297 2597 
z
M 1791 1766 
L 1791 0 
L 588 0 
L 588 4666 
L 2425 4666 
Q 3347 4666 3776 4356 
Q 4206 4047 4206 3378 
Q 4206 2916 3982 2619 
Q 3759 2322 3309 2181 
Q 3556 2125 3751 1926 
Q 3947 1728 4147 1325 
L 4800 0 
L 3519 0 
L 2950 1159 
Q 2778 1509 2601 1637 
Q 2425 1766 2131 1766 
L 1791 1766 
z
" transform="scale(0.015625)"/>
      <path id="DejaVuSans-Bold-65" d="M 4031 1759 
L 4031 1441 
L 1416 1441 
Q 1456 1047 1700 850 
Q 1944 653 2381 653 
Q 2734 653 3104 758 
Q 3475 863 3866 1075 
L 3866 213 
Q 3469 63 3072 -14 
Q 2675 -91 2278 -91 
Q 1328 -91 801 392 
Q 275 875 275 1747 
Q 275 2603 792 3093 
Q 1309 3584 2216 3584 
Q 3041 3584 3536 3087 
Q 4031 2591 4031 1759 
z
M 2881 2131 
Q 2881 2450 2695 2645 
Q 2509 2841 2209 2841 
Q 1884 2841 1681 2658 
Q 1478 2475 1428 2131 
L 2881 2131 
z
" transform="scale(0.015625)"/>
      <path id="DejaVuSans-Bold-61" d="M 2106 1575 
Q 1756 1575 1579 1456 
Q 1403 1338 1403 1106 
Q 1403 894 1545 773 
Q 1688 653 1941 653 
Q 2256 653 2472 879 
Q 2688 1106 2688 1447 
L 2688 1575 
L 2106 1575 
z
M 3816 1997 
L 3816 0 
L 2688 0 
L 2688 519 
Q 2463 200 2181 54 
Q 1900 -91 1497 -91 
Q 953 -91 614 226 
Q 275 544 275 1050 
Q 275 1666 698 1953 
Q 1122 2241 2028 2241 
L 2688 2241 
L 2688 2328 
Q 2688 2594 2478 2717 
Q 2269 2841 1825 2841 
Q 1466 2841 1156 2769 
Q 847 2697 581 2553 
L 581 3406 
Q 941 3494 1303 3539 
Q 1666 3584 2028 3584 
Q 2975 3584 3395 3211 
Q 3816 2838 3816 1997 
z
" transform="scale(0.015625)"/>
      <path id="DejaVuSans-Bold-6c" d="M 538 4863 
L 1656 4863 
L 1656 0 
L 538 0 
L 538 4863 
z
" transform="scale(0.015625)"/>
      <path id="DejaVuSans-Bold-20" transform="scale(0.015625)"/>
      <path id="DejaVuSans-Bold-63" d="M 3366 3391 
L 3366 2478 
Q 3138 2634 2908 2709 
Q 2678 2784 2431 2784 
Q 1963 2784 1702 2511 
Q 1441 2238 1441 1747 
Q 1441 1256 1702 982 
Q 1963 709 2431 709 
Q 2694 709 2930 787 
Q 3166 866 3366 1019 
L 3366 103 
Q 3103 6 2833 -42 
Q 2563 -91 2291 -91 
Q 1344 -91 809 395 
Q 275 881 275 1747 
Q 275 2613 809 3098 
Q 1344 3584 2291 3584 
Q 2566 3584 2833 3536 
Q 3100 3488 3366 3391 
z
" transform="scale(0.015625)"/>
      <path id="DejaVuSans-Bold-6f" d="M 2203 2784 
Q 1831 2784 1636 2517 
Q 1441 2250 1441 1747 
Q 1441 1244 1636 976 
Q 1831 709 2203 709 
Q 2569 709 2762 976 
Q 2956 1244 2956 1747 
Q 2956 2250 2762 2517 
Q 2569 2784 2203 2784 
z
M 2203 3584 
Q 3106 3584 3614 3096 
Q 4122 2609 4122 1747 
Q 4122 884 3614 396 
Q 3106 -91 2203 -91 
Q 1297 -91 786 396 
Q 275 884 275 1747 
Q 275 2609 786 3096 
Q 1297 3584 2203 3584 
z
" transform="scale(0.015625)"/>
      <path id="DejaVuSans-Bold-6e" d="M 4056 2131 
L 4056 0 
L 2931 0 
L 2931 347 
L 2931 1631 
Q 2931 2084 2911 2256 
Q 2891 2428 2841 2509 
Q 2775 2619 2662 2680 
Q 2550 2741 2406 2741 
Q 2056 2741 1856 2470 
Q 1656 2200 1656 1722 
L 1656 0 
L 538 0 
L 538 3500 
L 1656 3500 
L 1656 2988 
Q 1909 3294 2193 3439 
Q 2478 3584 2822 3584 
Q 3428 3584 3742 3212 
Q 4056 2841 4056 2131 
z
" transform="scale(0.015625)"/>
      <path id="DejaVuSans-Bold-74" d="M 1759 4494 
L 1759 3500 
L 2913 3500 
L 2913 2700 
L 1759 2700 
L 1759 1216 
Q 1759 972 1856 886 
Q 1953 800 2241 800 
L 2816 800 
L 2816 0 
L 1856 0 
Q 1194 0 917 276 
Q 641 553 641 1216 
L 641 2700 
L 84 2700 
L 84 3500 
L 641 3500 
L 641 4494 
L 1759 4494 
z
" transform="scale(0.015625)"/>
      <path id="DejaVuSans-Bold-6d" d="M 3781 2919 
Q 3994 3244 4286 3414 
Q 4578 3584 4928 3584 
Q 5531 3584 5847 3212 
Q 6163 2841 6163 2131 
L 6163 0 
L 5038 0 
L 5038 1825 
Q 5041 1866 5042 1909 
Q 5044 1953 5044 2034 
Q 5044 2406 4934 2573 
Q 4825 2741 4581 2741 
Q 4263 2741 4089 2478 
Q 3916 2216 3909 1719 
L 3909 0 
L 2784 0 
L 2784 1825 
Q 2784 2406 2684 2573 
Q 2584 2741 2328 2741 
Q 2006 2741 1831 2477 
Q 1656 2213 1656 1722 
L 1656 0 
L 531 0 
L 531 3500 
L 1656 3500 
L 1656 2988 
Q 1863 3284 2130 3434 
Q 2397 3584 2719 3584 
Q 3081 3584 3359 3409 
Q 3638 3234 3781 2919 
z
" transform="scale(0.015625)"/>
     </defs>
     <use xlink:href="#DejaVuSans-Bold-52"/>
     <use xlink:href="#DejaVuSans-Bold-65" transform="translate(77.001953 0)"/>
     <use xlink:href="#DejaVuSans-Bold-61" transform="translate(144.824219 0)"/>
     <use xlink:href="#DejaVuSans-Bold-6c" transform="translate(212.304688 0)"/>
     <use xlink:href="#DejaVuSans-Bold-20" transform="translate(246.582031 0)"/>
     <use xlink:href="#DejaVuSans-Bold-63" transform="translate(281.396484 0)"/>
     <use xlink:href="#DejaVuSans-Bold-6f" transform="translate(340.673828 0)"/>
     <use xlink:href="#DejaVuSans-Bold-6e" transform="translate(409.375 0)"/>
     <use xlink:href="#DejaVuSans-Bold-6e" transform="translate(480.566406 0)"/>
     <use xlink:href="#DejaVuSans-Bold-65" transform="translate(551.757812 0)"/>
     <use xlink:href="#DejaVuSans-Bold-63" transform="translate(619.580078 0)"/>
     <use xlink:href="#DejaVuSans-Bold-74" transform="translate(678.857422 0)"/>
     <use xlink:href="#DejaVuSans-Bold-6f" transform="translate(726.660156 0)"/>
     <use xlink:href="#DejaVuSans-Bold-6d" transform="translate(795.361328 0)"/>
     <use xlink:href="#DejaVuSans-Bold-65" transform="translate(899.560547 0)"/>
    </g>
    <!-- sustains oscillations -->
    <g transform="translate(288.970837 25.99625) scale(0.1 -0.1)">
     <defs>
      <path id="DejaVuSans-Bold-73" d="M 3272 3391 
L 3272 2541 
Q 2913 2691 2578 2766 
Q 2244 2841 1947 2841 
Q 1628 2841 1473 2761 
Q 1319 2681 1319 2516 
Q 1319 2381 1436 2309 
Q 1553 2238 1856 2203 
L 2053 2175 
Q 2913 2066 3209 1816 
Q 3506 1566 3506 1031 
Q 3506 472 3093 190 
Q 2681 -91 1863 -91 
Q 1516 -91 1145 -36 
Q 775 19 384 128 
L 384 978 
Q 719 816 1070 734 
Q 1422 653 1784 653 
Q 2113 653 2278 743 
Q 2444 834 2444 1013 
Q 2444 1163 2330 1236 
Q 2216 1309 1875 1350 
L 1678 1375 
Q 931 1469 631 1722 
Q 331 1975 331 2491 
Q 331 3047 712 3315 
Q 1094 3584 1881 3584 
Q 2191 3584 2531 3537 
Q 2872 3491 3272 3391 
z
" transform="scale(0.015625)"/>
      <path id="DejaVuSans-Bold-75" d="M 500 1363 
L 500 3500 
L 1625 3500 
L 1625 3150 
Q 1625 2866 1622 2436 
Q 1619 2006 1619 1863 
Q 1619 1441 1641 1255 
Q 1663 1069 1716 984 
Q 1784 875 1895 815 
Q 2006 756 2150 756 
Q 2500 756 2700 1025 
Q 2900 1294 2900 1772 
L 2900 3500 
L 4019 3500 
L 4019 0 
L 2900 0 
L 2900 506 
Q 2647 200 2364 54 
Q 2081 -91 1741 -91 
Q 1134 -91 817 281 
Q 500 653 500 1363 
z
" transform="scale(0.015625)"/>
      <path id="DejaVuSans-Bold-69" d="M 538 3500 
L 1656 3500 
L 1656 0 
L 538 0 
L 538 3500 
z
M 538 4863 
L 1656 4863 
L 1656 3950 
L 538 3950 
L 538 4863 
z
" transform="scale(0.015625)"/>
     </defs>
     <use xlink:href="#DejaVuSans-Bold-73"/>
     <use xlink:href="#DejaVuSans-Bold-75" transform="translate(59.521484 0)"/>
     <use xlink:href="#DejaVuSans-Bold-73" transform="translate(130.712891 0)"/>
     <use xlink:href="#DejaVuSans-Bold-74" transform="translate(190.234375 0)"/>
     <use xlink:href="#DejaVuSans-Bold-61" transform="translate(238.037109 0)"/>
     <use xlink:href="#DejaVuSans-Bold-69" transform="translate(305.517578 0)"/>
     <use xlink:href="#DejaVuSans-Bold-6e" transform="translate(339.794922 0)"/>
     <use xlink:href="#DejaVuSans-Bold-73" transform="translate(410.986328 0)"/>
     <use xlink:href="#DejaVuSans-Bold-20" transform="translate(470.507812 0)"/>
     <use xlink:href="#DejaVuSans-Bold-6f" transform="translate(505.322266 0)"/>
     <use xlink:href="#DejaVuSans-Bold-73" transform="translate(574.023438 0)"/>
     <use xlink:href="#DejaVuSans-Bold-63" transform="translate(633.544922 0)"/>
     <use xlink:href="#DejaVuSans-Bold-69" transform="translate(692.822266 0)"/>
     <use xlink:href="#DejaVuSans-Bold-6c" transform="translate(727.099609 0)"/>
     <use xlink:href="#DejaVuSans-Bold-6c" transform="translate(761.376953 0)"/>
     <use xlink:href="#DejaVuSans-Bold-61" transform="translate(795.654297 0)"/>
     <use xlink:href="#DejaVuSans-Bold-74" transform="translate(863.134766 0)"/>
     <use xlink:href="#DejaVuSans-Bold-69" transform="translate(910.9375 0)"/>
     <use xlink:href="#DejaVuSans-Bold-6f" transform="translate(945.214844 0)"/>
     <use xlink:href="#DejaVuSans-Bold-6e" transform="translate(1013.916016 0)"/>
     <use xlink:href="#DejaVuSans-Bold-73" transform="translate(1085.107422 0)"/>
    </g>
   </g>
   <g id="patch_6">
    <path d="M 437.83611 247.5723 
Q 375.293901 270.434975 314.3268 292.72186 
" style="fill: none; stroke: #e74c3c; stroke-width: 1.5; stroke-linecap: round"/>
    <path d="M 318.770322 293.226946 
L 314.3268 292.72186 
L 317.396982 289.470094 
" style="fill: none; stroke: #e74c3c; stroke-width: 1.5; stroke-linecap: round"/>
   </g>
   <g id="text_14">
    <!-- Random wiring -->
    <g style="fill: #e74c3c" transform="translate(418.701904 231.531632) scale(0.1 -0.1)">
     <defs>
      <path id="DejaVuSans-Bold-64" d="M 2919 2988 
L 2919 4863 
L 4044 4863 
L 4044 0 
L 2919 0 
L 2919 506 
Q 2688 197 2409 53 
Q 2131 -91 1766 -91 
Q 1119 -91 703 423 
Q 288 938 288 1747 
Q 288 2556 703 3070 
Q 1119 3584 1766 3584 
Q 2128 3584 2408 3439 
Q 2688 3294 2919 2988 
z
M 2181 722 
Q 2541 722 2730 984 
Q 2919 1247 2919 1747 
Q 2919 2247 2730 2509 
Q 2541 2772 2181 2772 
Q 1825 2772 1636 2509 
Q 1447 2247 1447 1747 
Q 1447 1247 1636 984 
Q 1825 722 2181 722 
z
" transform="scale(0.015625)"/>
      <path id="DejaVuSans-Bold-77" d="M 225 3500 
L 1313 3500 
L 1900 1088 
L 2491 3500 
L 3425 3500 
L 4013 1113 
L 4603 3500 
L 5691 3500 
L 4769 0 
L 3547 0 
L 2956 2406 
L 2369 0 
L 1147 0 
L 225 3500 
z
" transform="scale(0.015625)"/>
      <path id="DejaVuSans-Bold-72" d="M 3138 2547 
Q 2991 2616 2845 2648 
Q 2700 2681 2553 2681 
Q 2122 2681 1889 2404 
Q 1656 2128 1656 1613 
L 1656 0 
L 538 0 
L 538 3500 
L 1656 3500 
L 1656 2925 
Q 1872 3269 2151 3426 
Q 2431 3584 2822 3584 
Q 2878 3584 2943 3579 
Q 3009 3575 3134 3559 
L 3138 2547 
z
" transform="scale(0.015625)"/>
      <path id="DejaVuSans-Bold-67" d="M 2919 594 
Q 2688 288 2409 144 
Q 2131 0 1766 0 
Q 1125 0 706 504 
Q 288 1009 288 1791 
Q 288 2575 706 3076 
Q 1125 3578 1766 3578 
Q 2131 3578 2409 3434 
Q 2688 3291 2919 2981 
L 2919 3500 
L 4044 3500 
L 4044 353 
Q 4044 -491 3511 -936 
Q 2978 -1381 1966 -1381 
Q 1638 -1381 1331 -1331 
Q 1025 -1281 716 -1178 
L 716 -306 
Q 1009 -475 1290 -558 
Q 1572 -641 1856 -641 
Q 2406 -641 2662 -400 
Q 2919 -159 2919 353 
L 2919 594 
z
M 2181 2772 
Q 1834 2772 1640 2515 
Q 1447 2259 1447 1791 
Q 1447 1309 1634 1061 
Q 1822 813 2181 813 
Q 2531 813 2725 1069 
Q 2919 1325 2919 1791 
Q 2919 2259 2725 2515 
Q 2531 2772 2181 2772 
z
" transform="scale(0.015625)"/>
     </defs>
     <use xlink:href="#DejaVuSans-Bold-52"/>
     <use xlink:href="#DejaVuSans-Bold-61" transform="translate(77.001953 0)"/>
     <use xlink:href="#DejaVuSans-Bold-6e" transform="translate(144.482422 0)"/>
     <use xlink:href="#DejaVuSans-Bold-64" transform="translate(215.673828 0)"/>
     <use xlink:href="#DejaVuSans-Bold-6f" transform="translate(287.255859 0)"/>
     <use xlink:href="#DejaVuSans-Bold-6d" transform="translate(355.957031 0)"/>
     <use xlink:href="#DejaVuSans-Bold-20" transform="translate(460.15625 0)"/>
     <use xlink:href="#DejaVuSans-Bold-77" transform="translate(494.970703 0)"/>
     <use xlink:href="#DejaVuSans-Bold-69" transform="translate(587.353516 0)"/>
     <use xlink:href="#DejaVuSans-Bold-72" transform="translate(621.630859 0)"/>
     <use xlink:href="#DejaVuSans-Bold-69" transform="translate(670.947266 0)"/>
     <use xlink:href="#DejaVuSans-Bold-6e" transform="translate(705.224609 0)"/>
     <use xlink:href="#DejaVuSans-Bold-67" transform="translate(776.416016 0)"/>
    </g>
    <!-- collapses to silence -->
    <g style="fill: #e74c3c" transform="translate(418.701904 242.80757) scale(0.1 -0.1)">
     <defs>
      <path id="DejaVuSans-Bold-70" d="M 1656 506 
L 1656 -1331 
L 538 -1331 
L 538 3500 
L 1656 3500 
L 1656 2988 
Q 1888 3294 2169 3439 
Q 2450 3584 2816 3584 
Q 3463 3584 3878 3070 
Q 4294 2556 4294 1747 
Q 4294 938 3878 423 
Q 3463 -91 2816 -91 
Q 2450 -91 2169 54 
Q 1888 200 1656 506 
z
M 2400 2772 
Q 2041 2772 1848 2508 
Q 1656 2244 1656 1747 
Q 1656 1250 1848 986 
Q 2041 722 2400 722 
Q 2759 722 2948 984 
Q 3138 1247 3138 1747 
Q 3138 2247 2948 2509 
Q 2759 2772 2400 2772 
z
" transform="scale(0.015625)"/>
     </defs>
     <use xlink:href="#DejaVuSans-Bold-63"/>
     <use xlink:href="#DejaVuSans-Bold-6f" transform="translate(59.277344 0)"/>
     <use xlink:href="#DejaVuSans-Bold-6c" transform="translate(127.978516 0)"/>
     <use xlink:href="#DejaVuSans-Bold-6c" transform="translate(162.255859 0)"/>
     <use xlink:href="#DejaVuSans-Bold-61" transform="translate(196.533203 0)"/>
     <use xlink:href="#DejaVuSans-Bold-70" transform="translate(264.013672 0)"/>
     <use xlink:href="#DejaVuSans-Bold-73" transform="translate(335.595703 0)"/>
     <use xlink:href="#DejaVuSans-Bold-65" transform="translate(395.117188 0)"/>
     <use xlink:href="#DejaVuSans-Bold-73" transform="translate(462.939453 0)"/>
     <use xlink:href="#DejaVuSans-Bold-20" transform="translate(522.460938 0)"/>
     <use xlink:href="#DejaVuSans-Bold-74" transform="translate(557.275391 0)"/>
     <use xlink:href="#DejaVuSans-Bold-6f" transform="translate(605.078125 0)"/>
     <use xlink:href="#DejaVuSans-Bold-20" transform="translate(673.779297 0)"/>
     <use xlink:href="#DejaVuSans-Bold-73" transform="translate(708.59375 0)"/>
     <use xlink:href="#DejaVuSans-Bold-69" transform="translate(768.115234 0)"/>
     <use xlink:href="#DejaVuSans-Bold-6c" transform="translate(802.392578 0)"/>
     <use xlink:href="#DejaVuSans-Bold-65" transform="translate(836.669922 0)"/>
     <use xlink:href="#DejaVuSans-Bold-6e" transform="translate(904.492188 0)"/>
     <use xlink:href="#DejaVuSans-Bold-63" transform="translate(975.683594 0)"/>
     <use xlink:href="#DejaVuSans-Bold-65" transform="translate(1034.960938 0)"/>
    </g>
   </g>
   <g id="text_15">
    <!-- The Real Connectome Sustains Oscillations — Random Wiring Cannot -->
    <g transform="translate(76.759062 17.773551) scale(0.12 -0.12)">
     <defs>
      <path id="DejaVuSans-Bold-54" d="M 31 4666 
L 4331 4666 
L 4331 3756 
L 2784 3756 
L 2784 0 
L 1581 0 
L 1581 3756 
L 31 3756 
L 31 4666 
z
" transform="scale(0.015625)"/>
      <path id="DejaVuSans-Bold-68" d="M 4056 2131 
L 4056 0 
L 2931 0 
L 2931 347 
L 2931 1625 
Q 2931 2084 2911 2256 
Q 2891 2428 2841 2509 
Q 2775 2619 2662 2680 
Q 2550 2741 2406 2741 
Q 2056 2741 1856 2470 
Q 1656 2200 1656 1722 
L 1656 0 
L 538 0 
L 538 4863 
L 1656 4863 
L 1656 2988 
Q 1909 3294 2193 3439 
Q 2478 3584 2822 3584 
Q 3428 3584 3742 3212 
Q 4056 2841 4056 2131 
z
" transform="scale(0.015625)"/>
      <path id="DejaVuSans-Bold-43" d="M 4288 256 
Q 3956 84 3597 -3 
Q 3238 -91 2847 -91 
Q 1681 -91 1000 561 
Q 319 1213 319 2328 
Q 319 3447 1000 4098 
Q 1681 4750 2847 4750 
Q 3238 4750 3597 4662 
Q 3956 4575 4288 4403 
L 4288 3438 
Q 3953 3666 3628 3772 
Q 3303 3878 2944 3878 
Q 2300 3878 1931 3465 
Q 1563 3053 1563 2328 
Q 1563 1606 1931 1193 
Q 2300 781 2944 781 
Q 3303 781 3628 887 
Q 3953 994 4288 1222 
L 4288 256 
z
" transform="scale(0.015625)"/>
      <path id="DejaVuSans-Bold-53" d="M 3834 4519 
L 3834 3531 
Q 3450 3703 3084 3790 
Q 2719 3878 2394 3878 
Q 1963 3878 1756 3759 
Q 1550 3641 1550 3391 
Q 1550 3203 1689 3098 
Q 1828 2994 2194 2919 
L 2706 2816 
Q 3484 2659 3812 2340 
Q 4141 2022 4141 1434 
Q 4141 663 3683 286 
Q 3225 -91 2284 -91 
Q 1841 -91 1394 -6 
Q 947 78 500 244 
L 500 1259 
Q 947 1022 1364 901 
Q 1781 781 2169 781 
Q 2563 781 2772 912 
Q 2981 1044 2981 1288 
Q 2981 1506 2839 1625 
Q 2697 1744 2272 1838 
L 1806 1941 
Q 1106 2091 782 2419 
Q 459 2747 459 3303 
Q 459 4000 909 4375 
Q 1359 4750 2203 4750 
Q 2588 4750 2994 4692 
Q 3400 4634 3834 4519 
z
" transform="scale(0.015625)"/>
      <path id="DejaVuSans-Bold-4f" d="M 2719 3878 
Q 2169 3878 1866 3472 
Q 1563 3066 1563 2328 
Q 1563 1594 1866 1187 
Q 2169 781 2719 781 
Q 3272 781 3575 1187 
Q 3878 1594 3878 2328 
Q 3878 3066 3575 3472 
Q 3272 3878 2719 3878 
z
M 2719 4750 
Q 3844 4750 4481 4106 
Q 5119 3463 5119 2328 
Q 5119 1197 4481 553 
Q 3844 -91 2719 -91 
Q 1597 -91 958 553 
Q 319 1197 319 2328 
Q 319 3463 958 4106 
Q 1597 4750 2719 4750 
z
" transform="scale(0.015625)"/>
      <path id="DejaVuSans-Bold-2014" d="M 344 2156 
L 6056 2156 
L 6056 1350 
L 344 1350 
L 344 2156 
z
" transform="scale(0.015625)"/>
      <path id="DejaVuSans-Bold-57" d="M 191 4666 
L 1344 4666 
L 2150 1275 
L 2950 4666 
L 4109 4666 
L 4909 1275 
L 5716 4666 
L 6859 4666 
L 5759 0 
L 4372 0 
L 3525 3547 
L 2688 0 
L 1300 0 
L 191 4666 
z
" transform="scale(0.015625)"/>
     </defs>
     <use xlink:href="#DejaVuSans-Bold-54"/>
     <use xlink:href="#DejaVuSans-Bold-68" transform="translate(68.212891 0)"/>
     <use xlink:href="#DejaVuSans-Bold-65" transform="translate(139.404297 0)"/>
     <use xlink:href="#DejaVuSans-Bold-20" transform="translate(207.226562 0)"/>
     <use xlink:href="#DejaVuSans-Bold-52" transform="translate(242.041016 0)"/>
     <use xlink:href="#DejaVuSans-Bold-65" transform="translate(319.042969 0)"/>
     <use xlink:href="#DejaVuSans-Bold-61" transform="translate(386.865234 0)"/>
     <use xlink:href="#DejaVuSans-Bold-6c" transform="translate(454.345703 0)"/>
     <use xlink:href="#DejaVuSans-Bold-20" transform="translate(488.623047 0)"/>
     <use xlink:href="#DejaVuSans-Bold-43" transform="translate(523.4375 0)"/>
     <use xlink:href="#DejaVuSans-Bold-6f" transform="translate(596.826172 0)"/>
     <use xlink:href="#DejaVuSans-Bold-6e" transform="translate(665.527344 0)"/>
     <use xlink:href="#DejaVuSans-Bold-6e" transform="translate(736.71875 0)"/>
     <use xlink:href="#DejaVuSans-Bold-65" transform="translate(807.910156 0)"/>
     <use xlink:href="#DejaVuSans-Bold-63" transform="translate(875.732422 0)"/>
     <use xlink:href="#DejaVuSans-Bold-74" transform="translate(935.009766 0)"/>
     <use xlink:href="#DejaVuSans-Bold-6f" transform="translate(982.8125 0)"/>
     <use xlink:href="#DejaVuSans-Bold-6d" transform="translate(1051.513672 0)"/>
     <use xlink:href="#DejaVuSans-Bold-65" transform="translate(1155.712891 0)"/>
     <use xlink:href="#DejaVuSans-Bold-20" transform="translate(1223.535156 0)"/>
     <use xlink:href="#DejaVuSans-Bold-53" transform="translate(1258.349609 0)"/>
     <use xlink:href="#DejaVuSans-Bold-75" transform="translate(1330.371094 0)"/>
     <use xlink:href="#DejaVuSans-Bold-73" transform="translate(1401.5625 0)"/>
     <use xlink:href="#DejaVuSans-Bold-74" transform="translate(1461.083984 0)"/>
     <use xlink:href="#DejaVuSans-Bold-61" transform="translate(1508.886719 0)"/>
     <use xlink:href="#DejaVuSans-Bold-69" transform="translate(1576.367188 0)"/>
     <use xlink:href="#DejaVuSans-Bold-6e" transform="translate(1610.644531 0)"/>
     <use xlink:href="#DejaVuSans-Bold-73" transform="translate(1681.835938 0)"/>
     <use xlink:href="#DejaVuSans-Bold-20" transform="translate(1741.357422 0)"/>
     <use xlink:href="#DejaVuSans-Bold-4f" transform="translate(1776.171875 0)"/>
     <use xlink:href="#DejaVuSans-Bold-73" transform="translate(1861.181641 0)"/>
     <use xlink:href="#DejaVuSans-Bold-63" transform="translate(1920.703125 0)"/>
     <use xlink:href="#DejaVuSans-Bold-69" transform="translate(1979.980469 0)"/>
     <use xlink:href="#DejaVuSans-Bold-6c" transform="translate(2014.257812 0)"/>
     <use xlink:href="#DejaVuSans-Bold-6c" transform="translate(2048.535156 0)"/>
     <use xlink:href="#DejaVuSans-Bold-61" transform="translate(2082.8125 0)"/>
     <use xlink:href="#DejaVuSans-Bold-74" transform="translate(2150.292969 0)"/>
     <use xlink:href="#DejaVuSans-Bold-69" transform="translate(2198.095703 0)"/>
     <use xlink:href="#DejaVuSans-Bold-6f" transform="translate(2232.373047 0)"/>
     <use xlink:href="#DejaVuSans-Bold-6e" transform="translate(2301.074219 0)"/>
     <use xlink:href="#DejaVuSans-Bold-73" transform="translate(2372.265625 0)"/>
     <use xlink:href="#DejaVuSans-Bold-20" transform="translate(2431.787109 0)"/>
     <use xlink:href="#DejaVuSans-Bold-2014" transform="translate(2466.601562 0)"/>
     <use xlink:href="#DejaVuSans-Bold-20" transform="translate(2566.601562 0)"/>
     <use xlink:href="#DejaVuSans-Bold-52" transform="translate(2601.416016 0)"/>
     <use xlink:href="#DejaVuSans-Bold-61" transform="translate(2678.417969 0)"/>
     <use xlink:href="#DejaVuSans-Bold-6e" transform="translate(2745.898438 0)"/>
     <use xlink:href="#DejaVuSans-Bold-64" transform="translate(2817.089844 0)"/>
     <use xlink:href="#DejaVuSans-Bold-6f" transform="translate(2888.671875 0)"/>
     <use xlink:href="#DejaVuSans-Bold-6d" transform="translate(2957.373047 0)"/>
     <use xlink:href="#DejaVuSans-Bold-20" transform="translate(3061.572266 0)"/>
     <use xlink:href="#DejaVuSans-Bold-57" transform="translate(3096.386719 0)"/>
     <use xlink:href="#DejaVuSans-Bold-69" transform="translate(3206.689453 0)"/>
     <use xlink:href="#DejaVuSans-Bold-72" transform="translate(3240.966797 0)"/>
     <use xlink:href="#DejaVuSans-Bold-69" transform="translate(3290.283203 0)"/>
     <use xlink:href="#DejaVuSans-Bold-6e" transform="translate(3324.560547 0)"/>
     <use xlink:href="#DejaVuSans-Bold-67" transform="translate(3395.751953 0)"/>
     <use xlink:href="#DejaVuSans-Bold-20" transform="translate(3467.333984 0)"/>
     <use xlink:href="#DejaVuSans-Bold-43" transform="translate(3502.148438 0)"/>
     <use xlink:href="#DejaVuSans-Bold-61" transform="translate(3575.537109 0)"/>
     <use xlink:href="#DejaVuSans-Bold-6e" transform="translate(3643.017578 0)"/>
     <use xlink:href="#DejaVuSans-Bold-6e" transform="translate(3714.208984 0)"/>
     <use xlink:href="#DejaVuSans-Bold-6f" transform="translate(3785.400391 0)"/>
     <use xlink:href="#DejaVuSans-Bold-74" transform="translate(3854.101562 0)"/>
    </g>
    <!-- Wilson-Cowan E/I dynamics on 76-region human connectome -->
    <g transform="translate(104.9975 31.304676) scale(0.12 -0.12)">
     <defs>
      <path id="DejaVuSans-Bold-2d" d="M 347 2297 
L 2309 2297 
L 2309 1388 
L 347 1388 
L 347 2297 
z
" transform="scale(0.015625)"/>
      <path id="DejaVuSans-Bold-45" d="M 588 4666 
L 3834 4666 
L 3834 3756 
L 1791 3756 
L 1791 2888 
L 3713 2888 
L 3713 1978 
L 1791 1978 
L 1791 909 
L 3903 909 
L 3903 0 
L 588 0 
L 588 4666 
z
" transform="scale(0.015625)"/>
      <path id="DejaVuSans-Bold-2f" d="M 1644 4666 
L 2338 4666 
L 691 -594 
L 0 -594 
L 1644 4666 
z
" transform="scale(0.015625)"/>
      <path id="DejaVuSans-Bold-49" d="M 588 4666 
L 1791 4666 
L 1791 0 
L 588 0 
L 588 4666 
z
" transform="scale(0.015625)"/>
      <path id="DejaVuSans-Bold-79" d="M 78 3500 
L 1197 3500 
L 2138 1125 
L 2938 3500 
L 4056 3500 
L 2584 -331 
Q 2363 -916 2067 -1148 
Q 1772 -1381 1288 -1381 
L 641 -1381 
L 641 -647 
L 991 -647 
Q 1275 -647 1404 -556 
Q 1534 -466 1606 -231 
L 1638 -134 
L 78 3500 
z
" transform="scale(0.015625)"/>
      <path id="DejaVuSans-Bold-37" d="M 428 4666 
L 3944 4666 
L 3944 3988 
L 2125 0 
L 953 0 
L 2675 3781 
L 428 3781 
L 428 4666 
z
" transform="scale(0.015625)"/>
      <path id="DejaVuSans-Bold-36" d="M 2316 2303 
Q 2000 2303 1842 2098 
Q 1684 1894 1684 1484 
Q 1684 1075 1842 870 
Q 2000 666 2316 666 
Q 2634 666 2792 870 
Q 2950 1075 2950 1484 
Q 2950 1894 2792 2098 
Q 2634 2303 2316 2303 
z
M 3803 4544 
L 3803 3681 
Q 3506 3822 3243 3889 
Q 2981 3956 2731 3956 
Q 2194 3956 1894 3657 
Q 1594 3359 1544 2772 
Q 1750 2925 1990 3001 
Q 2231 3078 2516 3078 
Q 3231 3078 3670 2659 
Q 4109 2241 4109 1563 
Q 4109 813 3618 361 
Q 3128 -91 2303 -91 
Q 1394 -91 895 523 
Q 397 1138 397 2266 
Q 397 3422 980 4083 
Q 1563 4744 2578 4744 
Q 2900 4744 3203 4694 
Q 3506 4644 3803 4544 
z
" transform="scale(0.015625)"/>
     </defs>
     <use xlink:href="#DejaVuSans-Bold-57"/>
     <use xlink:href="#DejaVuSans-Bold-69" transform="translate(110.302734 0)"/>
     <use xlink:href="#DejaVuSans-Bold-6c" transform="translate(144.580078 0)"/>
     <use xlink:href="#DejaVuSans-Bold-73" transform="translate(178.857422 0)"/>
     <use xlink:href="#DejaVuSans-Bold-6f" transform="translate(238.378906 0)"/>
     <use xlink:href="#DejaVuSans-Bold-6e" transform="translate(307.080078 0)"/>
     <use xlink:href="#DejaVuSans-Bold-2d" transform="translate(378.271484 0)"/>
     <use xlink:href="#DejaVuSans-Bold-43" transform="translate(419.775391 0)"/>
     <use xlink:href="#DejaVuSans-Bold-6f" transform="translate(493.164062 0)"/>
     <use xlink:href="#DejaVuSans-Bold-77" transform="translate(561.865234 0)"/>
     <use xlink:href="#DejaVuSans-Bold-61" transform="translate(654.248047 0)"/>
     <use xlink:href="#DejaVuSans-Bold-6e" transform="translate(721.728516 0)"/>
     <use xlink:href="#DejaVuSans-Bold-20" transform="translate(792.919922 0)"/>
     <use xlink:href="#DejaVuSans-Bold-45" transform="translate(827.734375 0)"/>
     <use xlink:href="#DejaVuSans-Bold-2f" transform="translate(896.044922 0)"/>
     <use xlink:href="#DejaVuSans-Bold-49" transform="translate(932.568359 0)"/>
     <use xlink:href="#DejaVuSans-Bold-20" transform="translate(969.775391 0)"/>
     <use xlink:href="#DejaVuSans-Bold-64" transform="translate(1004.589844 0)"/>
     <use xlink:href="#DejaVuSans-Bold-79" transform="translate(1076.171875 0)"/>
     <use xlink:href="#DejaVuSans-Bold-6e" transform="translate(1141.357422 0)"/>
     <use xlink:href="#DejaVuSans-Bold-61" transform="translate(1212.548828 0)"/>
     <use xlink:href="#DejaVuSans-Bold-6d" transform="translate(1280.029297 0)"/>
     <use xlink:href="#DejaVuSans-Bold-69" transform="translate(1384.228516 0)"/>
     <use xlink:href="#DejaVuSans-Bold-63" transform="translate(1418.505859 0)"/>
     <use xlink:href="#DejaVuSans-Bold-73" transform="translate(1477.783203 0)"/>
     <use xlink:href="#DejaVuSans-Bold-20" transform="translate(1537.304688 0)"/>
     <use xlink:href="#DejaVuSans-Bold-6f" transform="translate(1572.119141 0)"/>
     <use xlink:href="#DejaVuSans-Bold-6e" transform="translate(1640.820312 0)"/>
     <use xlink:href="#DejaVuSans-Bold-20" transform="translate(1712.011719 0)"/>
     <use xlink:href="#DejaVuSans-Bold-37" transform="translate(1746.826172 0)"/>
     <use xlink:href="#DejaVuSans-Bold-36" transform="translate(1816.40625 0)"/>
     <use xlink:href="#DejaVuSans-Bold-2d" transform="translate(1885.986328 0)"/>
     <use xlink:href="#DejaVuSans-Bold-72" transform="translate(1927.490234 0)"/>
     <use xlink:href="#DejaVuSans-Bold-65" transform="translate(1976.806641 0)"/>
     <use xlink:href="#DejaVuSans-Bold-67" transform="translate(2044.628906 0)"/>
     <use xlink:href="#DejaVuSans-Bold-69" transform="translate(2116.210938 0)"/>
     <use xlink:href="#DejaVuSans-Bold-6f" transform="translate(2150.488281 0)"/>
     <use xlink:href="#DejaVuSans-Bold-6e" transform="translate(2219.189453 0)"/>
     <use xlink:href="#DejaVuSans-Bold-20" transform="translate(2290.380859 0)"/>
     <use xlink:href="#DejaVuSans-Bold-68" transform="translate(2325.195312 0)"/>
     <use xlink:href="#DejaVuSans-Bold-75" transform="translate(2396.386719 0)"/>
     <use xlink:href="#DejaVuSans-Bold-6d" transform="translate(2467.578125 0)"/>
     <use xlink:href="#DejaVuSans-Bold-61" transform="translate(2571.777344 0)"/>
     <use xlink:href="#DejaVuSans-Bold-6e" transform="translate(2639.257812 0)"/>
     <use xlink:href="#DejaVuSans-Bold-20" transform="translate(2710.449219 0)"/>
     <use xlink:href="#DejaVuSans-Bold-63" transform="translate(2745.263672 0)"/>
     <use xlink:href="#DejaVuSans-Bold-6f" transform="translate(2804.541016 0)"/>
     <use xlink:href="#DejaVuSans-Bold-6e" transform="translate(2873.242188 0)"/>
     <use xlink:href="#DejaVuSans-Bold-6e" transform="translate(2944.433594 0)"/>
     <use xlink:href="#DejaVuSans-Bold-65" transform="translate(3015.625 0)"/>
     <use xlink:href="#DejaVuSans-Bold-63" transform="translate(3083.447266 0)"/>
     <use xlink:href="#DejaVuSans-Bold-74" transform="translate(3142.724609 0)"/>
     <use xlink:href="#DejaVuSans-Bold-6f" transform="translate(3190.527344 0)"/>
     <use xlink:href="#DejaVuSans-Bold-6d" transform="translate(3259.228516 0)"/>
     <use xlink:href="#DejaVuSans-Bold-65" transform="translate(3363.427734 0)"/>
    </g>
   </g>
   <g id="legend_1">
    <g id="patch_7">
     <path d="M 409.660469 124.126551 
L 553.1725 124.126551 
Q 554.9725 124.126551 554.9725 122.326551 
L 554.9725 43.604676 
Q 554.9725 41.804676 553.1725 41.804676 
L 409.660469 41.804676 
Q 407.860469 41.804676 407.860469 43.604676 
L 407.860469 122.326551 
Q 407.860469 124.126551 409.660469 124.126551 
z
" style="fill: #ffffff; opacity: 0.9; stroke: #cccccc; stroke-linejoin: miter"/>
    </g>
    <g id="line2d_45">
     <path d="M 411.460469 49.093269 
L 420.460469 49.093269 
L 429.460469 49.093269 
" style="fill: none; stroke: #000000; stroke-width: 3; stroke-linecap: square"/>
     <defs>
      <path id="m6df1c36549" d="M 0 4 
C 1.060812 4 2.078319 3.578535 2.828427 2.828427 
C 3.578535 2.078319 4 1.060812 4 0 
C 4 -1.060812 3.578535 -2.078319 2.828427 -2.828427 
C 2.078319 -3.578535 1.060812 -4 0 -4 
C -1.060812 -4 -2.078319 -3.578535 -2.828427 -2.828427 
C -3.578535 -2.078319 -4 -1.060812 -4 0 
C -4 1.060812 -3.578535 2.078319 -2.828427 2.828427 
C -2.078319 3.578535 -1.060812 4 0 4 
z
" style="stroke: #000000"/>
     </defs>
     <g>
      <use xlink:href="#m6df1c36549" x="420.460469" y="49.093269" style="stroke: #000000"/>
     </g>
    </g>
    <g id="text_16">
     <!-- Real human connectome -->
     <g transform="translate(436.660469 52.243269) scale(0.09 -0.09)">
      <defs>
       <path id="DejaVuSans-52" d="M 2841 2188 
Q 3044 2119 3236 1894 
Q 3428 1669 3622 1275 
L 4263 0 
L 3584 0 
L 2988 1197 
Q 2756 1666 2539 1819 
Q 2322 1972 1947 1972 
L 1259 1972 
L 1259 0 
L 628 0 
L 628 4666 
L 2053 4666 
Q 2853 4666 3247 4331 
Q 3641 3997 3641 3322 
Q 3641 2881 3436 2590 
Q 3231 2300 2841 2188 
z
M 1259 4147 
L 1259 2491 
L 2053 2491 
Q 2509 2491 2742 2702 
Q 2975 2913 2975 3322 
Q 2975 3731 2742 3939 
Q 2509 4147 2053 4147 
L 1259 4147 
z
" transform="scale(0.015625)"/>
       <path id="DejaVuSans-6d" d="M 3328 2828 
Q 3544 3216 3844 3400 
Q 4144 3584 4550 3584 
Q 5097 3584 5394 3201 
Q 5691 2819 5691 2113 
L 5691 0 
L 5113 0 
L 5113 2094 
Q 5113 2597 4934 2840 
Q 4756 3084 4391 3084 
Q 3944 3084 3684 2787 
Q 3425 2491 3425 1978 
L 3425 0 
L 2847 0 
L 2847 2094 
Q 2847 2600 2669 2842 
Q 2491 3084 2119 3084 
Q 1678 3084 1418 2786 
Q 1159 2488 1159 1978 
L 1159 0 
L 581 0 
L 581 3500 
L 1159 3500 
L 1159 2956 
Q 1356 3278 1631 3431 
Q 1906 3584 2284 3584 
Q 2666 3584 2933 3390 
Q 3200 3197 3328 2828 
z
" transform="scale(0.015625)"/>
      </defs>
      <use xlink:href="#DejaVuSans-52"/>
      <use xlink:href="#DejaVuSans-65" transform="translate(64.982422 0)"/>
      <use xlink:href="#DejaVuSans-61" transform="translate(126.505859 0)"/>
      <use xlink:href="#DejaVuSans-6c" transform="translate(187.785156 0)"/>
      <use xlink:href="#DejaVuSans-20" transform="translate(215.568359 0)"/>
      <use xlink:href="#DejaVuSans-68" transform="translate(247.355469 0)"/>
      <use xlink:href="#DejaVuSans-75" transform="translate(310.734375 0)"/>
      <use xlink:href="#DejaVuSans-6d" transform="translate(374.113281 0)"/>
      <use xlink:href="#DejaVuSans-61" transform="translate(471.525391 0)"/>
      <use xlink:href="#DejaVuSans-6e" transform="translate(532.804688 0)"/>
      <use xlink:href="#DejaVuSans-20" transform="translate(596.183594 0)"/>
      <use xlink:href="#DejaVuSans-63" transform="translate(627.970703 0)"/>
      <use xlink:href="#DejaVuSans-6f" transform="translate(682.951172 0)"/>
      <use xlink:href="#DejaVuSans-6e" transform="translate(744.132812 0)"/>
      <use xlink:href="#DejaVuSans-6e" transform="translate(807.511719 0)"/>
      <use xlink:href="#DejaVuSans-65" transform="translate(870.890625 0)"/>
      <use xlink:href="#DejaVuSans-63" transform="translate(932.414062 0)"/>
      <use xlink:href="#DejaVuSans-74" transform="translate(987.394531 0)"/>
      <use xlink:href="#DejaVuSans-6f" transform="translate(1026.603516 0)"/>
      <use xlink:href="#DejaVuSans-6d" transform="translate(1087.785156 0)"/>
      <use xlink:href="#DejaVuSans-65" transform="translate(1185.197266 0)"/>
     </g>
    </g>
    <g id="line2d_46">
     <path d="M 411.460469 62.303582 
L 420.460469 62.303582 
L 429.460469 62.303582 
" style="fill: none; stroke-dasharray: 7.4,3.2; stroke-dashoffset: 0; stroke: #e74c3c; stroke-opacity: 0.8; stroke-width: 2"/>
    </g>
    <g id="text_17">
     <!-- Degree-preserving rewire -->
     <g transform="translate(436.660469 65.453582) scale(0.09 -0.09)">
      <defs>
       <path id="DejaVuSans-44" d="M 1259 4147 
L 1259 519 
L 2022 519 
Q 2988 519 3436 956 
Q 3884 1394 3884 2338 
Q 3884 3275 3436 3711 
Q 2988 4147 2022 4147 
L 1259 4147 
z
M 628 4666 
L 1925 4666 
Q 3281 4666 3915 4102 
Q 4550 3538 4550 2338 
Q 4550 1131 3912 565 
Q 3275 0 1925 0 
L 628 0 
L 628 4666 
z
" transform="scale(0.015625)"/>
       <path id="DejaVuSans-2d" d="M 313 2009 
L 1997 2009 
L 1997 1497 
L 313 1497 
L 313 2009 
z
" transform="scale(0.015625)"/>
       <path id="DejaVuSans-76" d="M 191 3500 
L 800 3500 
L 1894 563 
L 2988 3500 
L 3597 3500 
L 2284 0 
L 1503 0 
L 191 3500 
z
" transform="scale(0.015625)"/>
       <path id="DejaVuSans-77" d="M 269 3500 
L 844 3500 
L 1563 769 
L 2278 3500 
L 2956 3500 
L 3675 769 
L 4391 3500 
L 4966 3500 
L 4050 0 
L 3372 0 
L 2619 2869 
L 1863 0 
L 1184 0 
L 269 3500 
z
" transform="scale(0.015625)"/>
      </defs>
      <use xlink:href="#DejaVuSans-44"/>
      <use xlink:href="#DejaVuSans-65" transform="translate(77.001953 0)"/>
      <use xlink:href="#DejaVuSans-67" transform="translate(138.525391 0)"/>
      <use xlink:href="#DejaVuSans-72" transform="translate(202.001953 0)"/>
      <use xlink:href="#DejaVuSans-65" transform="translate(240.865234 0)"/>
      <use xlink:href="#DejaVuSans-65" transform="translate(302.388672 0)"/>
      <use xlink:href="#DejaVuSans-2d" transform="translate(363.912109 0)"/>
      <use xlink:href="#DejaVuSans-70" transform="translate(399.996094 0)"/>
      <use xlink:href="#DejaVuSans-72" transform="translate(463.472656 0)"/>
      <use xlink:href="#DejaVuSans-65" transform="translate(502.335938 0)"/>
      <use xlink:href="#DejaVuSans-73" transform="translate(563.859375 0)"/>
      <use xlink:href="#DejaVuSans-65" transform="translate(615.958984 0)"/>
      <use xlink:href="#DejaVuSans-72" transform="translate(677.482422 0)"/>
      <use xlink:href="#DejaVuSans-76" transform="translate(718.595703 0)"/>
      <use xlink:href="#DejaVuSans-69" transform="translate(777.775391 0)"/>
      <use xlink:href="#DejaVuSans-6e" transform="translate(805.558594 0)"/>
      <use xlink:href="#DejaVuSans-67" transform="translate(868.9375 0)"/>
      <use xlink:href="#DejaVuSans-20" transform="translate(932.414062 0)"/>
      <use xlink:href="#DejaVuSans-72" transform="translate(964.201172 0)"/>
      <use xlink:href="#DejaVuSans-65" transform="translate(1003.064453 0)"/>
      <use xlink:href="#DejaVuSans-77" transform="translate(1064.587891 0)"/>
      <use xlink:href="#DejaVuSans-69" transform="translate(1146.375 0)"/>
      <use xlink:href="#DejaVuSans-72" transform="translate(1174.158203 0)"/>
      <use xlink:href="#DejaVuSans-65" transform="translate(1213.021484 0)"/>
     </g>
    </g>
    <g id="line2d_47">
     <path d="M 411.460469 75.873894 
L 420.460469 75.873894 
L 429.460469 75.873894 
" style="fill: none; stroke-dasharray: 7.4,3.2; stroke-dashoffset: 0; stroke: #3498db; stroke-opacity: 0.8; stroke-width: 2"/>
    </g>
    <g id="text_18">
     <!-- Erdős-Rényi random -->
     <g transform="translate(436.660469 79.023894) scale(0.09 -0.09)">
      <defs>
       <path id="DejaVuSans-45" d="M 628 4666 
L 3578 4666 
L 3578 4134 
L 1259 4134 
L 1259 2753 
L 3481 2753 
L 3481 2222 
L 1259 2222 
L 1259 531 
L 3634 531 
L 3634 0 
L 628 0 
L 628 4666 
z
" transform="scale(0.015625)"/>
       <path id="DejaVuSans-64" d="M 2906 2969 
L 2906 4863 
L 3481 4863 
L 3481 0 
L 2906 0 
L 2906 525 
Q 2725 213 2448 61 
Q 2172 -91 1784 -91 
Q 1150 -91 751 415 
Q 353 922 353 1747 
Q 353 2572 751 3078 
Q 1150 3584 1784 3584 
Q 2172 3584 2448 3432 
Q 2725 3281 2906 2969 
z
M 947 1747 
Q 947 1113 1208 752 
Q 1469 391 1925 391 
Q 2381 391 2643 752 
Q 2906 1113 2906 1747 
Q 2906 2381 2643 2742 
Q 2381 3103 1925 3103 
Q 1469 3103 1208 2742 
Q 947 2381 947 1747 
z
" transform="scale(0.015625)"/>
       <path id="DejaVuSans-151" d="M 2892 5119 
L 3448 5119 
L 2673 3944 
L 2251 3944 
L 2892 5119 
z
M 1848 5119 
L 2379 5119 
L 1682 3944 
L 1254 3944 
L 1848 5119 
z
M 1959 3097 
Q 1497 3097 1228 2736 
Q 959 2375 959 1747 
Q 959 1119 1226 758 
Q 1494 397 1959 397 
Q 2419 397 2687 759 
Q 2956 1122 2956 1747 
Q 2956 2369 2687 2733 
Q 2419 3097 1959 3097 
z
M 1959 3584 
Q 2709 3584 3137 3096 
Q 3566 2609 3566 1747 
Q 3566 888 3137 398 
Q 2709 -91 1959 -91 
Q 1206 -91 779 398 
Q 353 888 353 1747 
Q 353 2609 779 3096 
Q 1206 3584 1959 3584 
z
" transform="scale(0.015625)"/>
       <path id="DejaVuSans-e9" d="M 3597 1894 
L 3597 1613 
L 953 1613 
Q 991 1019 1311 708 
Q 1631 397 2203 397 
Q 2534 397 2845 478 
Q 3156 559 3463 722 
L 3463 178 
Q 3153 47 2828 -22 
Q 2503 -91 2169 -91 
Q 1331 -91 842 396 
Q 353 884 353 1716 
Q 353 2575 817 3079 
Q 1281 3584 2069 3584 
Q 2775 3584 3186 3129 
Q 3597 2675 3597 1894 
z
M 3022 2063 
Q 3016 2534 2758 2815 
Q 2500 3097 2075 3097 
Q 1594 3097 1305 2825 
Q 1016 2553 972 2059 
L 3022 2063 
z
M 2466 5119 
L 3088 5119 
L 2070 3944 
L 1591 3944 
L 2466 5119 
z
" transform="scale(0.015625)"/>
       <path id="DejaVuSans-79" d="M 2059 -325 
Q 1816 -950 1584 -1140 
Q 1353 -1331 966 -1331 
L 506 -1331 
L 506 -850 
L 844 -850 
Q 1081 -850 1212 -737 
Q 1344 -625 1503 -206 
L 1606 56 
L 191 3500 
L 800 3500 
L 1894 763 
L 2988 3500 
L 3597 3500 
L 2059 -325 
z
" transform="scale(0.015625)"/>
      </defs>
      <use xlink:href="#DejaVuSans-45"/>
      <use xlink:href="#DejaVuSans-72" transform="translate(63.183594 0)"/>
      <use xlink:href="#DejaVuSans-64" transform="translate(102.546875 0)"/>
      <use xlink:href="#DejaVuSans-151" transform="translate(166.023438 0)"/>
      <use xlink:href="#DejaVuSans-73" transform="translate(227.205078 0)"/>
      <use xlink:href="#DejaVuSans-2d" transform="translate(279.304688 0)"/>
      <use xlink:href="#DejaVuSans-52" transform="translate(315.388672 0)"/>
      <use xlink:href="#DejaVuSans-e9" transform="translate(380.371094 0)"/>
      <use xlink:href="#DejaVuSans-6e" transform="translate(441.894531 0)"/>
      <use xlink:href="#DejaVuSans-79" transform="translate(505.273438 0)"/>
      <use xlink:href="#DejaVuSans-69" transform="translate(564.453125 0)"/>
      <use xlink:href="#DejaVuSans-20" transform="translate(592.236328 0)"/>
      <use xlink:href="#DejaVuSans-72" transform="translate(624.023438 0)"/>
      <use xlink:href="#DejaVuSans-61" transform="translate(665.136719 0)"/>
      <use xlink:href="#DejaVuSans-6e" transform="translate(726.416016 0)"/>
      <use xlink:href="#DejaVuSans-64" transform="translate(789.794922 0)"/>
      <use xlink:href="#DejaVuSans-6f" transform="translate(853.271484 0)"/>
      <use xlink:href="#DejaVuSans-6d" transform="translate(914.453125 0)"/>
     </g>
    </g>
    <g id="line2d_48">
     <path d="M 411.460469 89.084207 
L 420.460469 89.084207 
L 429.460469 89.084207 
" style="fill: none; stroke-dasharray: 7.4,3.2; stroke-dashoffset: 0; stroke: #2ecc71; stroke-opacity: 0.8; stroke-width: 2"/>
    </g>
    <g id="text_19">
     <!-- Lattice -->
     <g transform="translate(436.660469 92.234207) scale(0.09 -0.09)">
      <defs>
       <path id="DejaVuSans-4c" d="M 628 4666 
L 1259 4666 
L 1259 531 
L 3531 531 
L 3531 0 
L 628 0 
L 628 4666 
z
" transform="scale(0.015625)"/>
      </defs>
      <use xlink:href="#DejaVuSans-4c"/>
      <use xlink:href="#DejaVuSans-61" transform="translate(55.712891 0)"/>
      <use xlink:href="#DejaVuSans-74" transform="translate(116.992188 0)"/>
      <use xlink:href="#DejaVuSans-74" transform="translate(156.201172 0)"/>
      <use xlink:href="#DejaVuSans-69" transform="translate(195.410156 0)"/>
      <use xlink:href="#DejaVuSans-63" transform="translate(223.193359 0)"/>
      <use xlink:href="#DejaVuSans-65" transform="translate(278.173828 0)"/>
     </g>
    </g>
    <g id="line2d_49">
     <path d="M 411.460469 102.294519 
L 420.460469 102.294519 
L 429.460469 102.294519 
" style="fill: none; stroke-dasharray: 7.4,3.2; stroke-dashoffset: 0; stroke: #9b59b6; stroke-opacity: 0.8; stroke-width: 2"/>
    </g>
    <g id="text_20">
     <!-- Weight-shuffled -->
     <g transform="translate(436.660469 105.444519) scale(0.09 -0.09)">
      <defs>
       <path id="DejaVuSans-57" d="M 213 4666 
L 850 4666 
L 1831 722 
L 2809 4666 
L 3519 4666 
L 4500 722 
L 5478 4666 
L 6119 4666 
L 4947 0 
L 4153 0 
L 3169 4050 
L 2175 0 
L 1381 0 
L 213 4666 
z
" transform="scale(0.015625)"/>
       <path id="DejaVuSans-66" d="M 2375 4863 
L 2375 4384 
L 1825 4384 
Q 1516 4384 1395 4259 
Q 1275 4134 1275 3809 
L 1275 3500 
L 2222 3500 
L 2222 3053 
L 1275 3053 
L 1275 0 
L 697 0 
L 697 3053 
L 147 3053 
L 147 3500 
L 697 3500 
L 697 3744 
Q 697 4328 969 4595 
Q 1241 4863 1831 4863 
L 2375 4863 
z
" transform="scale(0.015625)"/>
      </defs>
      <use xlink:href="#DejaVuSans-57"/>
      <use xlink:href="#DejaVuSans-65" transform="translate(93.001953 0)"/>
      <use xlink:href="#DejaVuSans-69" transform="translate(154.525391 0)"/>
      <use xlink:href="#DejaVuSans-67" transform="translate(182.308594 0)"/>
      <use xlink:href="#DejaVuSans-68" transform="translate(245.785156 0)"/>
      <use xlink:href="#DejaVuSans-74" transform="translate(309.164062 0)"/>
      <use xlink:href="#DejaVuSans-2d" transform="translate(348.373047 0)"/>
      <use xlink:href="#DejaVuSans-73" transform="translate(384.457031 0)"/>
      <use xlink:href="#DejaVuSans-68" transform="translate(436.556641 0)"/>
      <use xlink:href="#DejaVuSans-75" transform="translate(499.935547 0)"/>
      <use xlink:href="#DejaVuSans-66" transform="translate(563.314453 0)"/>
      <use xlink:href="#DejaVuSans-66" transform="translate(598.519531 0)"/>
      <use xlink:href="#DejaVuSans-6c" transform="translate(633.724609 0)"/>
      <use xlink:href="#DejaVuSans-65" transform="translate(661.507812 0)"/>
      <use xlink:href="#DejaVuSans-64" transform="translate(723.03125 0)"/>
     </g>
    </g>
    <g id="line2d_50">
     <path d="M 411.460469 115.504832 
L 420.460469 115.504832 
L 429.460469 115.504832 
" style="fill: none; stroke-dasharray: 7.4,3.2; stroke-dashoffset: 0; stroke: #f39c12; stroke-opacity: 0.8; stroke-width: 2"/>
    </g>
    <g id="text_21">
     <!-- Random geometric -->
     <g transform="translate(436.660469 118.654832) scale(0.09 -0.09)">
      <use xlink:href="#DejaVuSans-52"/>
      <use xlink:href="#DejaVuSans-61" transform="translate(67.232422 0)"/>
      <use xlink:href="#DejaVuSans-6e" transform="translate(128.511719 0)"/>
      <use xlink:href="#DejaVuSans-64" transform="translate(191.890625 0)"/>
      <use xlink:href="#DejaVuSans-6f" transform="translate(255.367188 0)"/>
      <use xlink:href="#DejaVuSans-6d" transform="translate(316.548828 0)"/>
      <use xlink:href="#DejaVuSans-20" transform="translate(413.960938 0)"/>
      <use xlink:href="#DejaVuSans-67" transform="translate(445.748047 0)"/>
      <use xlink:href="#DejaVuSans-65" transform="translate(509.224609 0)"/>
      <use xlink:href="#DejaVuSans-6f" transform="translate(570.748047 0)"/>
      <use xlink:href="#DejaVuSans-6d" transform="translate(631.929688 0)"/>
      <use xlink:href="#DejaVuSans-65" transform="translate(729.341797 0)"/>
      <use xlink:href="#DejaVuSans-74" transform="translate(790.865234 0)"/>
      <use xlink:href="#DejaVuSans-72" transform="translate(830.074219 0)"/>
      <use xlink:href="#DejaVuSans-69" transform="translate(871.1875 0)"/>
      <use xlink:href="#DejaVuSans-63" transform="translate(898.970703 0)"/>
     </g>
    </g>
   </g>
   <g id="line2d_51">
    <path d="M 84.8725 56.100415 
L 152.905279 52.240881 
L 310.8725 266.254535 
L 378.905279 276.551464 
L 468.839721 283.163167 
L 536.8725 289.159252 
" clip-path="url(#p8a1989b31e)" style="fill: none; stroke: #000000; stroke-width: 3; stroke-linecap: square"/>
    <g clip-path="url(#p8a1989b31e)">
     <use xlink:href="#m6df1c36549" x="84.8725" y="56.100415" style="stroke: #000000"/>
     <use xlink:href="#m6df1c36549" x="152.905279" y="52.240881" style="stroke: #000000"/>
     <use xlink:href="#m6df1c36549" x="310.8725" y="266.254535" style="stroke: #000000"/>
     <use xlink:href="#m6df1c36549" x="378.905279" y="276.551464" style="stroke: #000000"/>
     <use xlink:href="#m6df1c36549" x="468.839721" y="283.163167" style="stroke: #000000"/>
     <use xlink:href="#m6df1c36549" x="536.8725" y="289.159252" style="stroke: #000000"/>
    </g>
   </g>
  </g>
 </g>
 <defs>
  <clipPath id="p8a1989b31e">
   <rect x="62.2725" y="37.304676" width="497.2" height="270.248701"/>
  </clipPath>
 </defs>
</svg>
